<svg width="36" height="22" viewBox="0 0 36 22" fill="none" xmlns="http://www.w3.org/2000/svg">
<path d="M6.14128 12.068C6.20528 12.148 6.28128 12.212 6.36928 12.26C6.45728 12.3 6.55728 12.336 6.66928 12.368C6.78928 12.392 6.92528 12.404 7.07728 12.404H7.80928C7.88928 12.404 7.92928 12.68 7.92928 13.232C7.92928 13.56 7.91728 13.772 7.89328 13.868C7.86928 13.956 7.84128 14 7.80928 14H7.04128C6.72928 14 6.45328 13.96 6.21328 13.88C5.97328 13.8 5.75728 13.668 5.56528 13.484C5.37328 13.3 5.19728 13.044 5.03728 12.716L4.13728 13.148C3.50528 13.46 3.06928 13.764 2.82928 14.06C2.59728 14.364 2.48128 14.732 2.48128 15.164C2.48128 15.644 2.62928 15.992 2.92528 16.208C3.22128 16.424 3.69328 16.532 4.34128 16.532H6.98128L6.84928 18.128H4.25728C3.15328 18.128 2.32528 17.892 1.77328 17.42C1.22928 16.948 0.957282 16.252 0.957282 15.332C0.957282 14.604 1.15728 13.956 1.55728 13.388C1.95728 12.82 2.61328 12.332 3.52528 11.924L5.30128 11.108C5.22928 10.9 5.15328 10.748 5.07328 10.652C5.00128 10.548 4.90928 10.48 4.79728 10.448C4.69328 10.408 4.54128 10.388 4.34128 10.388H1.48528L1.66528 8.804H4.62928C5.09328 8.804 5.47728 8.888 5.78128 9.056C6.08528 9.216 6.34128 9.5 6.54928 9.908C6.76528 10.316 6.94128 10.896 7.07728 11.648L6.14128 12.068ZM2.90128 7.592V6.224H4.53328V7.592H2.90128ZM10.7936 12.404C10.9856 12.404 11.1416 12.352 11.2616 12.248C11.3896 12.136 11.4536 11.984 11.4536 11.792V9.872H12.9776V11.864C12.9776 12.528 12.7816 13.052 12.3896 13.436C11.9976 13.812 11.4616 14 10.7816 14H7.86563C7.78563 14 7.74563 13.744 7.74563 13.232C7.74563 12.896 7.75763 12.676 7.78163 12.572C7.80563 12.46 7.83363 12.404 7.86563 12.404H10.7936ZM10.0256 16.616V15.248H11.4416V16.616H10.0256ZM7.91363 16.616V15.248H9.32963V16.616H7.91363ZM16.7179 13.556C16.7179 14.212 16.5859 14.788 16.3219 15.284C16.0579 15.788 15.6819 16.176 15.1939 16.448C14.7059 16.728 14.1339 16.868 13.4779 16.868H13.0939L12.9619 15.272H13.4539C14.0059 15.272 14.4339 15.12 14.7379 14.816C15.0419 14.52 15.1939 14.1 15.1939 13.556V9.872H16.7179V13.556ZM20.9793 12.404C21.0193 12.404 21.0473 12.456 21.0633 12.56C21.0873 12.664 21.0993 12.888 21.0993 13.232C21.0993 13.552 21.0873 13.76 21.0633 13.856C21.0473 13.952 21.0193 14 20.9793 14H20.5473C19.8753 14 19.3633 13.808 19.0113 13.424C18.6673 13.032 18.4953 12.476 18.4953 11.756V6.272H20.0313V11.648C20.0313 11.904 20.0793 12.096 20.1753 12.224C20.2793 12.344 20.4393 12.404 20.6553 12.404H20.9793ZM24.4137 11.864C24.4137 12.528 24.2177 13.052 23.8257 13.436C23.4337 13.812 22.8977 14 22.2177 14H21.0417C20.9617 14 20.9217 13.744 20.9217 13.232C20.9217 12.896 20.9337 12.676 20.9577 12.572C20.9817 12.46 21.0097 12.404 21.0417 12.404H22.2177C22.4177 12.404 22.5777 12.352 22.6977 12.248C22.8257 12.136 22.8897 11.984 22.8897 11.792V9.872H24.4137V11.864ZM23.3577 8.624V7.256H24.7737V8.624H23.3577ZM21.2457 8.624V7.256H22.6617V8.624H21.2457ZM31.618 13.556C31.618 14.212 31.486 14.788 31.222 15.284C30.958 15.788 30.582 16.176 30.094 16.448C29.606 16.728 29.034 16.868 28.378 16.868H27.994L27.862 15.272H28.354C28.906 15.272 29.334 15.12 29.638 14.816C29.942 14.52 30.094 14.1 30.094 13.556V9.872H31.618V13.556ZM29.986 8.624V7.256H31.618V8.624H29.986ZM33.3954 6.272H34.9314V14H33.3954V6.272Z" fill="#505358"/>
</svg>
