<svg width="36" height="22" viewBox="0 0 36 22" fill="none" xmlns="http://www.w3.org/2000/svg">
<path d="M6.25847 12.068C6.32247 12.148 6.39847 12.212 6.48647 12.26C6.57447 12.3 6.67447 12.336 6.78647 12.368C6.90647 12.392 7.04247 12.404 7.19447 12.404H7.92647C8.00647 12.404 8.04647 12.68 8.04647 13.232C8.04647 13.56 8.03447 13.772 8.01047 13.868C7.98647 13.956 7.95847 14 7.92647 14H7.15847C6.84647 14 6.57047 13.96 6.33047 13.88C6.09047 13.8 5.87447 13.668 5.68247 13.484C5.49047 13.3 5.31447 13.044 5.15447 12.716L4.25447 13.148C3.62247 13.46 3.18647 13.764 2.94647 14.06C2.71447 14.364 2.59847 14.732 2.59847 15.164C2.59847 15.644 2.74647 15.992 3.04247 16.208C3.33847 16.424 3.81047 16.532 4.45847 16.532H7.09847L6.96647 18.128H4.37447C3.27047 18.128 2.44247 17.892 1.89047 17.42C1.34647 16.948 1.07447 16.252 1.07447 15.332C1.07447 14.604 1.27447 13.956 1.67447 13.388C2.07447 12.82 2.73047 12.332 3.64247 11.924L5.41847 11.108C5.34647 10.9 5.27047 10.748 5.19047 10.652C5.11847 10.548 5.02647 10.48 4.91447 10.448C4.81047 10.408 4.65847 10.388 4.45847 10.388H1.60247L1.78247 8.804H4.74647C5.21047 8.804 5.59447 8.888 5.89847 9.056C6.20247 9.216 6.45847 9.5 6.66647 9.908C6.88247 10.316 7.05847 10.896 7.19447 11.648L6.25847 12.068ZM3.01847 7.592V6.224H4.65047V7.592H3.01847ZM10.9108 12.404C11.1028 12.404 11.2588 12.352 11.3788 12.248C11.5068 12.136 11.5708 11.984 11.5708 11.792V9.872H13.0948V11.864C13.0948 12.528 12.8988 13.052 12.5068 13.436C12.1148 13.812 11.5788 14 10.8988 14H7.98281C7.90281 14 7.86281 13.744 7.86281 13.232C7.86281 12.896 7.87481 12.676 7.89881 12.572C7.92281 12.46 7.95081 12.404 7.98281 12.404H10.9108ZM10.1428 16.616V15.248H11.5588V16.616H10.1428ZM8.03081 16.616V15.248H9.44681V16.616H8.03081ZM16.8351 13.556C16.8351 14.212 16.7031 14.788 16.4391 15.284C16.1751 15.788 15.7991 16.176 15.3111 16.448C14.8231 16.728 14.2511 16.868 13.5951 16.868H13.2111L13.0791 15.272H13.5711C14.1231 15.272 14.5511 15.12 14.8551 14.816C15.1591 14.52 15.3111 14.1 15.3111 13.556V9.872H16.8351V13.556ZM21.0965 12.404C21.1365 12.404 21.1645 12.456 21.1805 12.56C21.2045 12.664 21.2165 12.888 21.2165 13.232C21.2165 13.552 21.2045 13.76 21.1805 13.856C21.1645 13.952 21.1365 14 21.0965 14H20.6645C19.9925 14 19.4805 13.808 19.1285 13.424C18.7845 13.032 18.6125 12.476 18.6125 11.756V6.272H20.1485V11.648C20.1485 11.904 20.1965 12.096 20.2925 12.224C20.3965 12.344 20.5565 12.404 20.7725 12.404H21.0965ZM24.5309 11.864C24.5309 12.528 24.3349 13.052 23.9429 13.436C23.5509 13.812 23.0149 14 22.3349 14H21.1589C21.0789 14 21.0389 13.744 21.0389 13.232C21.0389 12.896 21.0509 12.676 21.0749 12.572C21.0989 12.46 21.1269 12.404 21.1589 12.404H22.3349C22.5349 12.404 22.6949 12.352 22.8149 12.248C22.9429 12.136 23.0069 11.984 23.0069 11.792V9.872H24.5309V11.864ZM23.4749 8.624V7.256H24.8909V8.624H23.4749ZM21.3629 8.624V7.256H22.7789V8.624H21.3629ZM31.4952 12.404C31.5352 12.404 31.5632 12.456 31.5792 12.56C31.6032 12.664 31.6152 12.888 31.6152 13.232C31.6152 13.552 31.6032 13.76 31.5792 13.856C31.5632 13.952 31.5352 14 31.4952 14H31.0632C30.3912 14 29.8792 13.808 29.5272 13.424C29.1832 13.032 29.0112 12.476 29.0112 11.756V6.272H30.5472V11.648C30.5472 11.904 30.5952 12.096 30.6912 12.224C30.7952 12.344 30.9552 12.404 31.1712 12.404H31.4952ZM34.9297 11.864C34.9297 12.528 34.7337 13.052 34.3417 13.436C33.9497 13.812 33.4137 14 32.7337 14H31.5577C31.4777 14 31.4377 13.744 31.4377 13.232C31.4377 12.896 31.4497 12.676 31.4737 12.572C31.4977 12.46 31.5257 12.404 31.5577 12.404H32.7337C32.9337 12.404 33.0937 12.352 33.2137 12.248C33.3417 12.136 33.4057 11.984 33.4057 11.792V9.872H34.9297V11.864ZM33.8737 8.624V7.256H35.2897V8.624H33.8737ZM31.7617 8.624V7.256H33.1777V8.624H31.7617Z" fill="#505358"/>
</svg>
