<svg width="218" height="121" viewBox="0 0 218 121" fill="none" xmlns="http://www.w3.org/2000/svg">
<path d="M121.489 34.4239C124.872 35.9716 126.94 38.0707 127.667 40.2888C128.513 42.8767 127.529 45.5898 124.471 47.7641C122.454 49.199 119.828 50.2141 116.94 50.753C114.346 51.2355 111.538 51.4046 108.8 51.1352C106.062 50.8658 103.349 50.0449 100.968 48.9609C97.5842 47.4132 95.3974 45.3956 94.6705 43.1774C93.8246 40.5896 94.8711 37.7887 97.9226 35.6144C99.9402 34.1795 102.61 33.2334 105.492 32.6945C108.086 32.212 110.887 32.093 113.625 32.3624C116.363 32.6318 119.108 33.3336 121.483 34.4176L121.489 34.4239Z" fill="#EDEBFC"/>
<path d="M121.533 8.45151C124.916 9.9992 127.059 12.1547 127.786 14.3791C128.632 16.9669 127.498 19.6864 124.446 21.8607C122.429 23.2956 119.828 24.3608 116.946 24.8996C114.352 25.3821 111.557 25.4009 108.819 25.1252C106.081 24.8495 103.305 24.2793 100.93 23.1953C97.5465 21.6476 95.4035 19.5297 94.6767 17.3116C93.8308 14.7237 94.9461 12.0294 98.0039 9.85508C100.022 8.42018 102.622 7.40509 105.51 6.86622C108.105 6.38374 110.899 6.21456 113.637 6.49026C116.376 6.76597 119.164 7.37376 121.539 8.45778L121.533 8.45151Z" fill="#EF5023"/>
<path d="M94.4262 10.2122C94.4262 12.7186 94.4951 12.7186 94.4951 15.225C94.4951 15.4506 94.6267 15.626 94.8523 15.626C98.9439 15.7012 98.9439 15.6761 103.029 15.7451C107.115 15.814 107.115 15.8015 111.206 15.8766C115.298 15.9518 115.298 16.0772 119.383 16.1523C123.469 16.2275 123.475 16.1461 127.567 16.2213C127.799 16.2213 127.974 16.0521 127.974 15.814C127.974 13.3452 128.074 13.3452 128.074 10.8764C128.074 10.6508 127.811 10.3814 127.586 10.3751C123.494 10.2937 123.494 10.4566 119.402 10.3751C115.311 10.2937 115.317 10.2874 111.225 10.1997C107.134 10.112 107.14 9.98664 103.048 9.89892C98.9565 9.81746 98.9565 9.88639 94.8648 9.80493C94.633 9.80493 94.4199 9.96785 94.4199 10.206L94.4262 10.2122Z" fill="#EF5023"/>
<path d="M121.489 2.82468C124.873 4.37237 127.028 6.4464 127.755 8.66455C128.601 11.2524 127.561 14.0533 124.509 16.2276C122.492 17.6625 119.822 18.6086 116.94 19.1475C114.346 19.63 111.545 19.7678 108.807 19.4921C106.068 19.2164 103.33 18.4896 100.955 17.4056C97.5718 15.8579 95.4289 13.7964 94.702 11.5782C93.8561 8.99038 94.9276 6.27095 97.9854 4.09667C100.003 2.66176 102.603 1.55895 105.486 1.02008C108.08 0.537604 110.893 0.493742 113.631 0.769444C116.37 1.04515 119.114 1.74067 121.495 2.82468H121.489Z" fill="#F79E84"/>
<path d="M116.175 6.57177C114.477 5.79479 112.403 5.50656 110.417 5.58801C108.293 5.66947 106.237 6.18955 104.828 7.1921C102.102 9.13454 102.766 12.0294 106.281 13.6335C107.979 14.4105 110.035 14.7551 112.015 14.6799C114.139 14.5985 116.169 14.0408 117.585 13.0382C120.311 11.0958 119.69 8.18212 116.175 6.57803V6.57177ZM114.747 11.7161C113.224 12.8001 110.423 12.9944 108.462 12.0983C106.501 11.2023 106.168 9.61702 107.691 8.53301C109.214 7.449 112.015 7.26102 113.976 8.15706C115.937 9.05309 116.263 10.6321 114.747 11.7161Z" fill="white"/>
<path d="M48.8603 78.7619C46.4353 76.0049 45.5456 77.1892 42.2747 75.5224C39.0039 73.8557 39.0603 73.7429 35.7895 72.0761C32.5186 70.4094 32.456 70.5285 29.1789 68.8617C25.9018 67.195 25.9582 67.0947 22.6999 65.3904C22.6999 65.3026 22.6435 65.2525 22.6435 65.1648C22.6498 65.0395 22.656 64.9142 22.6435 64.7888C22.6498 64.6635 22.7939 64.5382 22.7876 64.4129C22.7939 64.2876 22.6936 64.1622 22.6874 64.0369C22.6936 63.9116 22.5996 63.7863 22.5934 63.661C22.5996 63.5356 22.6936 63.4103 22.6874 63.285C22.8127 61.399 21.4091 59.4565 18.627 58.0404C16.8725 57.1506 14.8298 56.4739 12.737 56.2671C10.6442 56.0604 8.54509 56.3235 6.65277 56.7935C5.86953 58.6983 5.2492 59.3312 6.6653 60.8288C9.56018 63.8865 10.7194 62.2073 14.1281 64.6823C12.5804 65.1961 10.4311 65.1585 8.90852 64.3816C4.99229 62.389 5.15521 62.0318 1.09487 60.3463C0.78157 60.9541 0.543464 61.5995 0.581059 62.2386C0.581059 62.3639 0.737708 62.483 0.743974 62.6083C0.743974 62.7336 0.700113 62.8589 0.706379 62.9842C0.706379 63.1096 0.624921 63.2349 0.631187 63.3602C0.631187 63.4855 0.693847 63.6108 0.700113 63.7362C0.700113 63.8615 0.637453 63.9868 0.643719 64.1121C0.643719 64.2374 0.775304 64.3628 0.78157 64.4881C0.78157 64.6134 0.618655 64.7387 0.624921 64.864C0.624921 64.9893 0.675049 65.1147 0.687581 65.24C0.687581 65.3653 0.637453 65.4906 0.643719 65.6159C0.643719 65.7413 0.693847 65.8666 0.700113 65.9919C0.606123 67.8592 1.9909 69.7389 4.74792 71.1425C6.59011 72.0761 8.7456 72.5837 10.9512 72.7654C13.1568 72.9471 15.4439 72.7654 17.3926 72.1889C20.9642 73.3607 20.6885 74.0374 24.0345 75.7417C27.3806 77.4461 27.4244 77.3709 30.7704 79.0752C34.1165 80.7796 34.0601 80.9049 37.4124 82.6092C40.7646 84.3136 40.4075 85.8738 44.1671 85.9928C46.9617 86.0806 46.8113 84.771 48.8603 82.8661C50.4518 81.3811 50.2012 80.2971 48.8415 78.7494L48.8603 78.7619Z" fill="#ABBBC1"/>
<path d="M163.734 65.0832C160.576 63.4478 160.714 63.1783 157.55 61.5429C154.385 59.9075 154.197 60.2772 151.039 58.6418C147.881 57.0064 148.019 56.7307 144.861 55.0953C141.703 53.4599 141.528 53.7919 138.363 52.1565C135.205 50.5211 135.33 50.2705 132.166 48.6351C129.002 46.9997 128.971 47.0623 125.806 45.4206C122.642 43.7789 122.604 43.8604 119.44 42.225C117.184 41.0533 114.809 40.0256 112.334 39.8063C109.189 39.5306 106.037 40.4392 103.067 41.7237C99.8338 43.121 99.8088 43.0646 96.5755 44.4619C93.3423 45.8592 93.2671 45.6901 90.0339 47.0874C86.7944 48.4847 86.8383 48.5724 83.5988 49.9697C80.3593 51.367 80.2966 51.2166 77.0571 52.6077C73.8176 53.9987 73.8615 54.099 70.622 55.49C67.3825 56.8811 67.3198 56.7432 64.0803 58.1405C60.8408 59.5378 61.0037 59.9075 57.7642 61.3048C54.1362 62.865 53.8417 67.7838 57.3507 69.601C60.5087 71.2364 60.5839 71.0985 63.7419 72.7339C66.9 74.3693 66.7809 74.6012 69.9452 76.2366C73.1095 77.872 73.2349 77.6276 76.3929 79.2631C79.5509 80.8985 79.5321 80.9423 82.6965 82.584C85.8608 84.2257 85.7856 84.3573 88.9499 85.9927C92.1142 87.6281 92.2144 87.4401 95.3787 89.0755C98.5431 90.711 98.3676 91.0431 101.532 92.6847C104.853 94.4079 108.694 95.0282 112.334 94.6836C114.314 94.4956 116.345 94.057 118.212 93.2487C121.445 91.8514 121.408 91.7699 124.647 90.3726C127.88 88.9753 127.799 88.7873 131.038 87.3963C134.278 86.0052 134.228 85.8924 137.467 84.4951C140.707 83.0978 140.788 83.2858 144.021 81.8885C147.255 80.4912 147.198 80.3471 150.431 78.956C153.671 77.5587 153.765 77.778 157.004 76.3807C160.244 74.9834 160.256 75.0147 163.496 73.6174C167.124 72.0572 167.249 66.9003 163.74 65.0895L163.734 65.0832Z" fill="#ABBBC1"/>
<path d="M126.301 45.6338C124.215 42.4319 122.899 43.8605 119.509 42.0998C117.253 40.9281 114.797 40.2325 112.328 40.0195C109.183 39.7438 105.962 40.2325 102.992 41.5108C99.2762 43.1086 97.954 41.4795 95.6043 44.7691C93.5115 47.7016 95.5855 48.3595 95.5855 51.9624C95.5855 55.5653 95.598 55.5716 95.598 59.1745C95.598 62.7774 92.9977 63.874 95.6231 66.349C98.4177 68.9745 99.4203 66.3302 103.255 66.3302C107.09 66.3302 107.09 66.4618 110.925 66.4618C114.759 66.4618 114.759 66.3866 118.6 66.3866C122.441 66.3866 123.425 68.9619 126.282 66.3866C128.851 64.0745 126.27 62.9278 126.27 59.469C126.27 56.0102 125.756 55.9726 126.351 52.5639C126.947 49.1553 128.194 48.5161 126.307 45.615L126.301 45.6338Z" fill="#AAA3CC"/>
<path d="M118.08 92.9417C121.426 91.5005 121.382 91.4065 124.728 89.9654C128.074 88.5242 128.25 88.9252 131.59 87.484C134.936 86.0429 134.779 85.6857 138.125 84.2445C141.471 82.8034 141.509 82.8974 144.855 81.4562C148.201 80.015 148.138 79.8709 151.484 78.4235C154.83 76.976 158.107 79.3759 158.377 75.7416C158.646 72.1074 155.043 74.3067 151.923 72.6901C148.802 71.0735 148.946 70.7915 145.826 69.1749C142.705 67.5583 142.749 67.4706 139.623 65.854C136.502 64.2373 136.433 64.3627 133.313 62.746C130.192 61.1294 130.111 61.2735 126.99 59.6569C123.87 58.0403 123.951 57.8711 120.825 56.2545C118.262 54.9261 115.43 54.1492 112.616 54.0489C109.803 53.9486 106.921 54.5251 104.27 55.6718C100.924 57.113 100.993 57.2696 97.647 58.7108C94.3009 60.1519 94.2821 60.1018 90.9361 61.543C87.5901 62.9842 87.5964 62.9967 84.2503 64.4379C80.9043 65.879 80.8855 65.8289 77.5395 67.2701C74.1935 68.7112 74.112 68.5233 70.766 69.9644C67.42 71.4056 64.6128 69.4318 64.3497 73.0661C64.0865 76.7003 67.2884 74.6639 70.4088 76.2805C73.5293 77.8971 73.5293 77.8971 76.656 79.5137C79.7827 81.1304 79.6762 81.3309 82.8029 82.9475C85.9296 84.5641 85.9985 84.4263 89.119 86.0429C92.2394 87.6595 92.2582 87.6344 95.3849 89.251C98.5117 90.8677 98.5367 90.8175 101.663 92.4341C104.226 93.7625 107.002 94.715 109.815 94.8152C112.629 94.9155 115.436 94.0884 118.087 92.948L118.08 92.9417Z" fill="#EAF0F3"/>
<path d="M163.346 73.273C160.113 74.6703 160.294 75.0964 157.061 76.4937C153.828 77.891 153.64 77.4524 150.4 78.8497C147.161 80.247 147.18 80.2908 143.946 81.6819C140.707 83.0792 140.838 83.38 137.599 84.771C134.359 86.1683 134.334 86.0994 131.095 87.4967C127.855 88.894 127.83 88.8313 124.591 90.2286C121.351 91.6259 121.376 91.6823 118.137 93.0797C115.486 94.2201 112.635 94.4519 109.822 94.3516C107.009 94.2514 104.201 93.7877 101.632 92.4593C98.4744 90.8239 98.4932 90.78 95.3351 89.1446C92.1771 87.5092 92.2397 87.3839 89.0754 85.7485C85.9174 84.1131 85.9111 84.1256 82.7468 82.4902C79.5825 80.8548 79.6264 80.7671 76.4683 79.1316C73.3103 77.4962 73.1599 77.7782 70.0018 76.1428C66.8375 74.5074 66.9566 74.2818 63.7923 72.6464C60.628 71.011 60.4651 71.3243 57.3008 69.6888C53.7918 67.8717 54.0299 62.5958 57.6579 61.0356C60.8912 59.6382 60.9538 59.7824 64.1933 58.3851C67.4265 56.9877 67.3639 56.8374 70.5971 55.4401C73.8366 54.0427 73.9619 54.3498 77.2014 52.9525C80.4409 51.5552 80.4096 51.4862 83.6491 50.0889C86.8886 48.6916 86.8635 48.6352 90.0968 47.2442C93.3363 45.8469 93.2485 45.6464 96.488 44.2491C99.7275 42.8518 99.6712 42.7264 102.911 41.3291C105.561 40.1887 108.5 39.6812 111.313 39.7814C114.127 39.8817 116.89 40.8466 119.453 42.175C121.558 43.2653 123.666 44.3556 125.775 45.4459C128.933 47.0813 128.946 47.0562 132.11 48.6916C135.268 50.327 135.35 50.1704 138.514 51.8058C141.678 53.4412 141.59 53.6041 144.755 55.2395C147.913 56.875 147.819 57.0629 150.983 58.6984C154.147 60.3338 154.298 60.0455 157.462 61.681C160.626 63.3164 160.576 63.4166 163.741 65.052C167.249 66.8692 166.974 71.6939 163.346 73.2542V73.273Z" stroke="#5522E2" stroke-width="1.33328" stroke-miterlimit="10" stroke-linecap="round" stroke-dasharray="12 12"/>
<path d="M18.6395 58.0341C16.885 57.1444 14.8173 56.6556 12.7244 56.4488C10.6316 56.2421 8.46986 56.3423 6.57755 56.8123C10.0927 59.4502 10.5063 58.7986 14.4225 60.7912C16.2898 61.7373 16.5467 63.2349 15.0303 64.2249C13.514 65.2149 10.7507 65.3841 8.88968 64.4379C4.97346 62.4454 5.40581 61.2235 1.08857 60.4027C-0.0706338 62.6772 1.20762 65.3152 4.72282 67.101C6.56501 68.0346 8.7581 68.5296 10.9574 68.7113C13.1568 68.893 15.4564 68.6424 17.4051 68.0659C20.9767 69.2377 20.7261 69.858 24.0784 71.5623C27.4306 73.2667 27.4244 73.2729 30.7767 74.9773C34.129 76.6816 34.0914 76.7568 37.4436 78.4612C40.7959 80.1655 40.4325 81.6756 44.1858 81.7946C46.9804 81.8824 49.656 81.4249 48.8226 78.7619C47.701 75.1715 45.4891 77.1014 42.1368 75.3971C38.7846 73.6928 38.7971 73.6677 35.4511 71.9634C32.1051 70.259 32.0612 70.3279 28.7089 68.6236C25.3566 66.9193 24.5734 67.9093 22.0482 65.1209C23.552 62.7712 22.3364 59.9202 18.6332 58.0341H18.6395Z" fill="#EAF0F3"/>
<path d="M0.724794 65.9982C0.630804 67.8654 1.98425 69.8079 4.74127 71.2114C6.58346 72.1451 8.75775 72.7278 10.9634 72.9095C13.169 73.0912 15.4498 72.8343 17.3922 72.2579C20.9638 73.4296 20.6881 74.0812 24.0404 75.7856C27.3927 77.4899 27.4616 77.3458 30.8139 79.0502C34.1662 80.7545 34.091 80.9049 37.4433 82.6092C40.7956 84.3136 40.4322 85.8612 44.1917 85.9803C46.9863 86.068 46.4725 84.3073 48.816 82.7847" stroke="#80949C" stroke-width="1.33332" stroke-miterlimit="10"/>
<path d="M27.1239 50.9535C28.1453 53.228 28.0325 53.8985 30.3822 54.7319C33.9726 56.0101 34.3611 55.9349 38.0016 54.8259C40.7587 53.9862 40.884 53.5351 42.3941 51.0851C43.2838 49.6439 43.1084 49.2241 42.3941 47.6889C41.379 45.5209 41.4354 44.8943 39.1608 44.1361C35.5454 42.9331 35.1945 43.0396 31.5289 44.0735C28.8408 44.8317 29.0915 45.546 27.1553 47.5636C25.9522 48.8168 26.4222 49.4058 27.1177 50.9535H27.1239Z" fill="#ABBBC1"/>
<path d="M31.5417 43.8292C28.7847 44.6689 27.6129 44.7065 27.1743 47.5575C26.7983 50.02 28.039 50.4899 30.3887 51.3233C33.9791 52.6016 34.3488 52.5201 37.9956 51.4048C40.7526 50.5651 41.9244 50.5275 42.363 47.6828C42.7389 45.2203 41.21 45.308 39.1548 43.8919C35.9842 41.7051 35.1822 42.7201 31.5417 43.8292ZM37.9831 47.6515C37.8014 48.8482 37.2938 48.8921 36.1346 49.243C34.6057 49.713 34.424 49.7568 32.9139 49.2179C31.9239 48.867 31.3913 48.6289 31.5542 47.5888C31.7359 46.392 32.2435 46.3481 33.4027 45.9972C34.9316 45.5273 35.0255 45.8469 36.6108 46.0474C37.7387 46.1852 38.1397 46.6113 37.9768 47.6515H37.9831Z" fill="#EAF0F3"/>
<path d="M27.1616 50.9286C28.7782 52.8272 28.0263 53.9175 30.3761 54.7571C33.9665 56.0353 34.3549 55.8975 37.9955 54.7884C40.7525 53.9488 40.176 52.9212 42.3691 51.0539" stroke="#80949C" stroke-width="1.33332" stroke-miterlimit="10"/>
<path d="M28.3955 88.2109C30.5072 89.533 30.7641 90.1596 33.1827 89.5455C36.8796 88.6119 37.1741 88.3675 39.5865 85.4162C41.4099 83.1856 41.2407 82.7344 41.1342 79.8583C41.0716 78.1665 40.6956 77.9284 39.2419 77.0512C37.1929 75.8105 36.8984 75.2466 34.5926 75.8795C30.9207 76.8945 30.6763 77.164 28.2076 80.0589C26.3967 82.1893 26.9669 82.6342 26.4844 85.3912C26.1836 87.0955 26.9544 87.3086 28.3893 88.2109H28.3955Z" fill="#ABBBC1"/>
<path d="M28.0698 79.8396C26.2464 82.0703 25.3128 82.7783 26.5284 85.385C27.5811 87.647 28.8969 87.3901 31.3156 86.7823C35.0125 85.8487 35.2945 85.5479 37.7069 82.5966C39.5302 80.3659 40.4701 79.6516 39.2483 77.0387C38.1956 74.7767 36.9487 75.7291 34.4548 75.6853C30.595 75.6226 30.4759 76.8883 28.0698 79.8396ZM35.5451 79.4699C36.0589 80.5665 35.683 80.8672 34.9185 81.8008C33.9034 83.0415 33.7718 83.1292 32.2179 83.5177C31.2028 83.7746 30.6765 83.9062 30.2378 82.9538C29.724 81.8572 30.1 81.569 30.8644 80.6354C31.8795 79.3947 32.1114 79.5952 33.5463 78.8746C34.5488 78.3734 35.1065 78.5175 35.5514 79.4699H35.5451Z" fill="#EAF0F3"/>
<path d="M28.4019 88.1858C30.8017 88.8688 30.7704 90.1659 33.189 89.5581C36.886 88.6244 37.1491 88.3425 39.5553 85.3912C41.3787 83.1605 40.3698 82.6342 41.1593 79.8646" stroke="#80949C" stroke-width="1.33332" stroke-miterlimit="10"/>
<path d="M123.814 61.5493C124.86 60.8037 125.631 60.058 126.208 59.2121C123.751 57.3637 123.507 57.771 120.781 56.3611C118.218 55.0327 115.43 54.3623 112.617 54.262C109.803 54.1618 106.984 54.663 104.333 55.8034C99.9657 57.6832 99.5835 56.9501 95.6108 59.5568C96.7011 60.7974 98.2488 61.8877 100.292 62.8213C102.666 63.9053 105.386 64.5507 108.162 64.8264C110.9 65.0959 113.688 64.9831 116.282 64.5006C119.165 63.9617 121.803 62.9905 123.82 61.5556L123.814 61.5493Z" fill="#CEC5F2"/>
<path d="M187.369 21.4784L187.344 21.4659C185.339 19.4733 186.047 18.2389 183.308 17.5434C180.295 16.779 180.345 18.4896 177.274 18.9721C176.466 18.6212 175.633 18.2577 174.693 18.0322C173.897 16.2965 175.545 15.0496 173.784 14.3102C170.087 12.7625 169.442 12.7625 165.745 14.3102C163.984 15.0496 165.664 16.309 164.868 18.0447C163.928 18.2765 163.057 18.6212 162.255 18.9721C159.185 18.4896 159.21 16.6662 156.196 17.4306C153.457 18.1262 154.234 19.5109 152.229 21.5035L152.273 21.4784C152.273 24.9748 152.242 24.9748 152.242 28.465C152.242 31.9614 152.204 31.9614 152.204 35.4515L152.179 35.4766C154.184 37.4692 153.476 38.7349 156.214 39.4304C159.228 40.1948 159.197 38.5093 162.267 38.0268C163.076 38.3777 164.028 38.6158 164.968 38.8477C165.764 40.5833 163.991 41.8804 165.751 42.6135C169.448 44.1612 170.087 44.18 173.784 42.6323C175.545 41.8929 173.866 40.6272 174.661 38.8915C175.601 38.6597 176.46 38.3589 177.262 38.0143C180.332 38.4968 180.295 40.1948 183.308 39.4304C186.047 38.7349 185.276 37.4065 187.275 35.4139L187.237 35.4578C187.237 31.9614 187.388 31.9614 187.4 28.4712C187.413 24.9811 187.356 24.9748 187.356 21.4847L187.369 21.4784Z" fill="#ABBBC1"/>
<path d="M182.318 24.6366C182.318 24.3421 182.181 24.0225 182.124 23.7343C184.656 22.4623 186.817 24.2669 187.344 21.4785C187.87 18.6902 186.053 18.2202 183.315 17.5247C180.301 16.7602 180.357 18.5085 177.287 18.9909C176.479 18.64 175.639 18.2578 174.693 18.026C173.897 16.2903 175.532 15.0935 173.772 14.3541C170.075 12.8064 169.486 12.8315 165.789 14.3792C164.028 15.1186 165.676 16.3028 164.88 18.0385C163.94 18.2703 163.069 18.6338 162.261 18.9847C159.191 18.5022 159.228 16.7164 156.221 17.4808C153.483 18.1764 151.647 18.709 152.167 21.4848C152.687 24.2606 154.88 22.4685 157.411 23.7405C157.349 24.0288 157.374 24.3421 157.374 24.6366C157.374 24.9311 157.305 25.1441 157.361 25.4323C154.83 26.7043 152.662 25 152.135 27.7821C151.609 30.5642 153.476 31.103 156.214 31.7985C159.228 32.563 159.191 30.7772 162.261 30.2884C163.069 30.6393 163.89 31.0216 164.83 31.2534C165.626 32.9891 164.003 34.2047 165.764 34.9378C169.461 36.4855 170.062 36.4354 173.759 34.8877C175.52 34.1483 173.884 32.9703 174.674 31.2346C175.614 31.0028 176.472 30.6581 177.281 30.3072C180.351 30.7897 180.307 32.5379 183.321 31.7735C186.059 31.078 187.914 30.5579 187.394 27.7821C186.874 25.0062 184.681 26.7795 182.143 25.5013C182.206 25.213 182.325 24.9248 182.325 24.6303L182.318 24.6366ZM169.768 27.6881C166.748 27.6881 164.26 26.366 164.26 24.6366C164.26 22.9072 166.748 21.5161 169.768 21.5161C172.788 21.5161 175.269 22.9072 175.269 24.6366C175.269 26.366 172.788 27.6881 169.768 27.6881Z" fill="#EAF0F3"/>
<path d="M152.261 35.4013C154.266 37.3939 153.483 38.7097 156.221 39.4052C159.235 40.1697 159.191 38.4591 162.261 37.9766C163.07 38.3275 163.953 38.6471 164.893 38.8726C165.689 40.6083 163.991 41.8615 165.751 42.6009C169.448 44.1486 170.1 44.2112 173.797 42.6635C175.558 41.9241 173.797 40.5895 174.586 38.8538C175.526 38.622 176.441 38.434 177.249 38.0894C180.32 38.5719 180.301 40.2135 183.315 39.4491C186.053 38.7536 185.257 37.3876 187.262 35.395" stroke="#80949C" stroke-width="1.33332" stroke-linecap="round" stroke-linejoin="round"/>
<path d="M156.208 39.4365C156.208 37.9996 156.208 36.5647 156.208 35.1318" stroke="#80949C" stroke-width="1.33332" stroke-linecap="round" stroke-linejoin="round"/>
<path d="M162.273 38.0017C162.273 36.431 162.273 34.8583 162.273 33.2834" stroke="#80949C" stroke-width="1.33332" stroke-linecap="round" stroke-linejoin="round"/>
<path d="M164.899 38.8791C164.899 37.651 164.899 37.651 164.899 36.4229" stroke="#80949C" stroke-width="1.33332" stroke-linecap="round" stroke-linejoin="round"/>
<path d="M174.649 38.8789C174.649 37.9578 174.643 37.9578 174.643 37.043" stroke="#80949C" stroke-width="1.33332" stroke-linecap="round" stroke-linejoin="round"/>
<path d="M177.255 38.0017C177.255 35.3449 177.274 35.3449 177.274 32.6819" stroke="#80949C" stroke-width="1.33332" stroke-linecap="round" stroke-linejoin="round"/>
<path d="M183.315 39.4367C183.315 38.1751 183.315 36.9115 183.315 35.6458" stroke="#80949C" stroke-width="1.33332" stroke-linecap="round" stroke-linejoin="round"/>
<path d="M87.4583 105.568L87.4834 105.549C86.1612 104.233 86.6374 103.349 84.8266 102.892C82.8403 102.385 82.8465 103.563 80.8226 103.888C80.29 103.657 79.6948 103.469 79.0744 103.318C78.5481 102.171 79.6697 101.363 78.5105 100.874C76.0668 99.8531 75.6532 99.8029 73.2158 100.824C72.0503 101.313 73.1907 102.165 72.6644 103.312C72.044 103.462 71.4488 103.675 70.9162 103.907C68.886 103.588 68.9111 102.435 66.9248 102.936C65.1139 103.393 65.5901 104.239 64.268 105.555L64.3306 105.568C64.3306 110.179 64.2241 110.179 64.2241 114.797H64.2742C65.5964 116.119 65.1202 116.972 66.9248 117.429C68.9111 117.937 68.8985 116.834 70.9224 116.514C71.455 116.746 72.0566 116.896 72.6769 117.047C73.2032 118.194 72.0754 118.983 73.2408 119.472C75.6846 120.493 76.0542 120.493 78.498 119.472C79.6634 118.983 78.5293 118.194 79.0494 117.047C79.6697 116.896 80.2963 116.69 80.8289 116.458C82.8591 116.777 82.8215 117.918 84.8141 117.41C86.6249 116.953 86.1362 116.107 87.4583 114.791H87.5209C87.5147 110.186 87.4646 110.186 87.4646 105.574L87.4583 105.568Z" fill="#ABBBC1"/>
<path d="M84.1123 107.654C84.1123 107.46 84.0998 107.31 84.0559 107.115C85.7289 106.276 87.12 107.404 87.4646 105.568C87.8092 103.732 86.6124 103.45 84.8016 102.992C82.8153 102.485 82.8403 103.512 80.8102 103.832C80.2776 103.6 79.6823 103.469 79.062 103.318C78.5356 102.172 79.6635 101.369 78.5043 100.881C76.0606 99.8594 75.6846 99.8719 73.2409 100.893C72.0754 101.382 73.2033 102.172 72.6769 103.318C72.0566 103.469 71.4488 103.657 70.9162 103.888C68.886 103.569 68.9174 102.454 66.9311 102.961C65.1202 103.418 63.9485 103.732 64.2931 105.568C64.6377 107.404 66.0225 106.263 67.6892 107.103C67.6516 107.291 67.6015 107.46 67.6015 107.654C67.6015 107.848 67.6642 108.055 67.7018 108.243C66.0288 109.083 64.6252 107.905 64.2806 109.747C63.9359 111.589 65.1014 111.946 66.906 112.404C68.8923 112.911 68.8798 111.727 70.9037 111.408C71.4363 111.639 72.0002 111.865 72.6268 112.015C73.1532 113.162 72.0378 114.008 73.2033 114.497C75.647 115.518 76.0794 115.512 78.5231 114.49C79.6885 114.002 78.5732 113.162 79.0995 112.015C79.7199 111.865 80.2838 111.664 80.8164 111.433C82.8466 111.752 82.8341 112.924 84.8204 112.416C86.6312 111.959 87.8092 111.577 87.4646 109.741C87.12 107.905 85.7101 109.058 84.0371 108.218C84.0747 108.03 84.106 107.848 84.106 107.654H84.1123ZM75.8663 109.716C73.8737 109.716 72.301 108.801 72.301 107.654C72.301 106.508 73.8737 105.586 75.8663 105.586C77.8589 105.586 79.5319 106.514 79.5319 107.654C79.5319 108.795 77.8589 109.716 75.8663 109.716Z" fill="#EAF0F3"/>
<path d="M64.312 114.76C65.6341 116.076 65.1266 116.922 66.9312 117.379C68.9175 117.886 68.8862 116.796 70.9163 116.477C71.4489 116.708 71.9815 116.922 72.6019 117.078C73.1282 118.225 72.0693 119.002 73.2285 119.491C75.6722 120.512 76.0857 120.568 78.5295 119.547C79.6949 119.058 78.6047 118.225 79.131 117.078C79.7513 116.928 80.2777 116.765 80.8103 116.539C82.8404 116.859 82.8154 117.905 84.808 117.404C86.6188 116.947 86.1614 116.138 87.4835 114.822" stroke="#80949C" stroke-width="1.33332" stroke-linecap="round" stroke-linejoin="round"/>
<path d="M200.747 80.1466C200.108 80.0338 200.283 79.3696 199.644 79.4699C197.514 79.8145 197.676 80.3534 195.584 80.886C193.228 81.4875 193.077 80.8734 190.796 81.7068C190.333 81.876 190.433 82.3021 190.728 82.6968C191.166 83.2921 192.645 82.9349 192.062 83.3924C188.948 85.7985 188.591 85.2471 185.107 87.0767C182.784 88.2965 180.46 89.5163 178.133 90.7361C174.649 92.5657 173.741 91.4128 171.128 94.3578C170.188 95.4167 172.237 96.1624 173.615 95.8303C177.444 94.9217 177.124 94.0257 180.602 92.196C184.079 90.3664 184.029 90.2536 187.513 88.4239C190.997 86.5943 190.815 86.1682 194.525 84.8586C195.22 84.6142 195.12 85.8737 195.778 85.529C199.262 83.6994 199.136 83.4425 202.05 80.7982C202.414 80.4661 202.451 80.1904 202.075 79.8709C201.543 79.4135 201.411 80.2594 200.741 80.1403L200.747 80.1466Z" fill="#ABBBC1"/>
<path d="M173.622 95.824C177.105 93.9944 177.068 93.9192 180.545 92.0895C184.023 90.2599 184.079 90.3476 187.563 88.5179C191.047 86.6883 190.797 86.1055 194.506 84.7897C195.202 84.5453 195.126 85.88 195.784 85.5353C199.268 83.7057 198.93 83.1856 202.075 80.8296" stroke="#80949C" stroke-width="1.33332" stroke-linecap="round" stroke-linejoin="round"/>
<path d="M195.828 84.6205C199.312 82.7909 200.026 83.2044 202.113 79.8709C202.865 78.6679 201.042 78.1979 199.638 78.4235C194.982 79.1691 194.938 79.4448 190.765 81.6379C190.107 81.9826 192.62 81.9199 192.031 82.3773C188.917 84.7834 188.616 84.3197 185.132 86.1494C181.648 87.9791 181.611 87.9101 178.127 89.7461C174.643 91.582 173.778 90.4729 171.165 93.4179C170.226 94.4769 172.231 95.1536 173.615 94.8278C177.444 93.9192 177.112 93.0294 180.596 91.1998C184.08 89.3701 184.073 89.3513 187.557 87.5217C191.041 85.692 190.803 85.1469 194.544 83.9062C195.333 83.643 195.177 84.9777 195.828 84.633V84.6205Z" fill="#EAF0F3"/>
<path d="M176.56 90.0781C175.094 88.8876 173.352 88.7686 172.055 89.5518C168.841 91.2875 168.822 91.2561 165.589 92.9605C162.355 94.6648 162.343 94.646 159.11 96.3504C155.876 98.0547 155.851 98.0171 152.618 99.7214C152.198 99.9408 152.092 100.473 152.33 100.887C153.658 103.214 154.982 105.543 156.302 107.873C156.528 108.262 157.017 108.444 157.418 108.231C159.577 107.09 161.737 105.95 163.897 104.809C167.136 103.093 167.099 103.024 170.338 101.313C173.578 99.6024 173.621 99.6839 176.861 97.9607C177.356 97.6725 177.782 97.2213 178.108 96.6637C179.267 94.6586 178.572 91.7073 176.567 90.0781H176.56Z" fill="#D5E1E6"/>
<path d="M157.919 107.297C156.76 109.302 154.191 109.622 152.186 107.986C150.181 106.351 149.498 103.387 150.657 101.388C151.816 99.3893 154.391 99.0948 156.396 100.724C158.401 102.353 159.078 105.298 157.919 107.297Z" fill="#ABBBC1"/>
<path d="M156.666 108.544C160.025 106.764 160.043 106.808 163.402 105.029C166.76 103.249 166.773 103.274 170.132 101.495C173.49 99.7152 173.465 99.6714 176.824 97.8856C177.319 97.5973 177.782 97.2151 178.102 96.6637C179.261 94.6586 178.597 91.676 176.592 90.0469" stroke="#80949C" stroke-width="1.33332" stroke-linecap="round" stroke-linejoin="round"/>
<path d="M156.396 100.724C158.401 102.353 159.084 105.292 157.919 107.297C156.753 109.302 154.203 109.597 152.198 107.967C150.193 106.338 149.504 103.393 150.663 101.388" stroke="#80949C" stroke-width="1.33332" stroke-linecap="round" stroke-linejoin="round"/>
</svg>
