<svg width="323" height="161" viewBox="0 0 323 161" fill="none" xmlns="http://www.w3.org/2000/svg">
<g clip-path="url(#clip0_11950_6867)">
<path d="M86.2546 144.573C83.6008 145.424 83.5388 145.238 80.885 146.079C78.2312 146.921 78.2577 147.036 75.6039 147.877C72.95 148.719 72.9589 148.772 70.305 149.622C67.6512 150.473 67.5981 150.305 64.9354 151.146C62.2727 151.988 62.2815 152.005 59.6189 152.847C56.9562 153.688 57.0004 153.821 54.3465 154.671C51.6927 155.522 51.7015 155.566 49.0389 156.408C46.3762 157.249 46.3496 157.161 43.6869 158.002C41.0242 158.844 40.9358 158.578 38.2819 159.428C36.38 160.039 34.4692 159.871 32.7089 158.923C30.3469 157.639 30.3115 157.71 27.9408 156.416C25.57 155.123 25.5877 155.097 23.2258 153.812C20.8639 152.528 20.6869 152.847 18.325 151.562C15.9631 150.278 15.9808 150.234 13.6189 148.94C11.2569 147.647 11.4073 147.364 9.03655 146.079C6.66578 144.795 6.60385 144.901 4.24193 143.617C2.38424 142.607 1.35809 141.013 0.845009 139.285C0.296547 137.443 0.349624 135.468 1.22539 133.767C2.05693 132.164 3.52539 130.932 5.53347 130.295C8.18732 129.444 8.16962 129.391 10.8323 128.55C13.495 127.708 13.5039 127.743 16.1577 126.893C18.8115 126.043 18.7585 125.866 21.4212 125.024C24.0839 124.183 24.0573 124.103 26.7112 123.253C29.365 122.402 29.3915 122.491 32.0542 121.64C34.7169 120.79 34.7965 121.073 37.4592 120.223C40.1219 119.373 40.1042 119.328 42.7669 118.487C45.4296 117.645 45.3765 117.486 48.0392 116.636C50.7019 115.785 50.6489 115.626 53.3115 114.776C55.2135 114.164 57.2481 114.705 59.0085 115.661C61.3704 116.946 61.4589 116.786 63.8208 118.071C66.1827 119.355 66.0942 119.514 68.465 120.808C70.8358 122.101 70.8358 122.074 73.2065 123.359C75.5773 124.643 75.6304 124.537 77.9923 125.83C80.3542 127.123 80.4073 127.026 82.7781 128.319C85.1488 129.612 85.0604 129.763 87.4312 131.047C89.2888 132.057 90.4742 133.545 90.9873 135.282C91.5358 137.124 91.4827 139.197 90.5981 140.897C89.7665 142.501 88.2627 143.927 86.2546 144.573Z" fill="#EDEBFC"/>
<path d="M310.788 159.357C308.063 159.597 308.072 159.481 305.339 159.49C302.605 159.499 302.605 159.393 299.872 159.402C297.138 159.411 297.138 159.738 294.405 159.747C291.671 159.756 291.671 159.481 288.938 159.49C286.204 159.499 286.204 159.437 283.471 159.455C280.737 159.473 280.737 159.552 277.995 159.561C275.253 159.57 275.235 159.313 272.51 159.543C270.608 160.155 268.459 160.226 266.699 159.269C264.337 157.984 264.407 157.843 262.045 156.558C259.683 155.274 259.622 155.371 257.26 154.087C254.898 152.803 254.968 152.67 252.607 151.385C250.245 150.101 250.174 150.216 247.812 148.932C245.45 147.647 245.512 147.523 243.141 146.23C240.77 144.937 240.708 145.07 238.338 143.776C236.48 142.767 235.516 141.03 235.003 139.294C234.454 137.452 234.507 135.459 235.383 133.758C236.215 132.155 237.683 130.977 239.691 130.339C242.416 130.1 242.416 130.259 245.149 130.25C247.883 130.242 247.883 130.295 250.616 130.286C253.35 130.277 253.35 130.038 256.083 130.029C258.817 130.02 258.817 130.118 261.55 130.109C264.284 130.1 264.283 130.109 267.017 130.091C269.75 130.073 269.75 130.206 272.493 130.197C275.235 130.188 275.244 130.312 277.968 130.082C279.87 129.471 281.949 129.63 283.71 130.587C286.072 131.871 286.151 131.73 288.513 133.014C290.875 134.298 290.813 134.422 293.175 135.707C295.537 136.991 295.448 137.151 297.819 138.435C300.19 139.72 300.314 139.48 302.685 140.765C305.055 142.049 305.002 142.155 307.364 143.44C309.726 144.724 309.655 144.866 312.026 146.159C313.884 147.169 314.981 148.666 315.494 150.402C316.042 152.245 316.122 154.308 315.237 156.018C314.406 157.621 312.796 158.711 310.788 159.357Z" fill="#EDEBFC"/>
<path d="M51.5688 100.55C51.3123 103.34 51.3034 103.34 51.0469 106.13C50.7904 108.921 50.9673 108.938 50.7108 111.728C50.4542 114.519 50.4188 114.519 50.1623 117.309C49.9058 120.099 49.8704 120.099 49.6138 122.889C49.3573 125.68 49.1981 125.662 48.9415 128.452C48.685 131.242 48.8884 131.26 48.6319 134.05C48.3754 136.841 48.2781 136.832 48.0215 139.622C47.765 142.412 47.7384 142.412 47.4819 145.211C47.2254 148.01 47.1369 147.993 46.8804 150.792" fill="#0A0E0F"/>
<path d="M51.5688 100.55C51.3123 103.34 51.3034 103.34 51.0469 106.13C50.7904 108.921 50.9673 108.938 50.7108 111.728C50.4542 114.519 50.4188 114.519 50.1623 117.309C49.9058 120.099 49.8704 120.099 49.6138 122.889C49.3573 125.68 49.1981 125.662 48.9415 128.452C48.685 131.242 48.8884 131.26 48.6319 134.05C48.3754 136.841 48.2781 136.832 48.0215 139.622C47.765 142.412 47.7384 142.412 47.4819 145.211C47.2254 148.01 47.1369 147.993 46.8804 150.792" stroke="#0A0E0F" stroke-width="3" stroke-linecap="round" stroke-linejoin="round"/>
<path d="M94.1189 87.0681C93.8623 89.8583 93.8889 89.8583 93.6323 92.6486C93.3758 95.4388 93.42 95.4388 93.1635 98.2291C92.9069 101.019 92.8804 101.019 92.6239 103.81C92.3673 106.6 92.2346 106.591 91.9781 109.381C91.7216 112.171 91.8631 112.189 91.6066 114.979C91.35 117.77 91.3589 117.77 91.1023 120.56C90.8458 123.35 90.7662 123.341 90.5096 126.14C90.2531 128.939 90.2796 128.939 90.0231 131.73C89.7666 134.52 89.6516 134.511 89.395 137.31" fill="#0A0E0F"/>
<path d="M94.1189 87.0681C93.8623 89.8583 93.8889 89.8583 93.6323 92.6486C93.3758 95.4388 93.42 95.4388 93.1635 98.2291C92.9069 101.019 92.8804 101.019 92.6239 103.81C92.3673 106.6 92.2346 106.591 91.9781 109.381C91.7216 112.171 91.8631 112.189 91.6066 114.979C91.35 117.77 91.3589 117.77 91.1023 120.56C90.8458 123.35 90.7662 123.341 90.5096 126.14C90.2531 128.939 90.2796 128.939 90.0231 131.73C89.7666 134.52 89.6516 134.511 89.395 137.31" stroke="#0A0E0F" stroke-width="3" stroke-linecap="round" stroke-linejoin="round"/>
<path d="M17.5996 129.382C18.7408 127.159 18.8292 127.203 19.9704 124.98C21.1115 122.756 21.0408 122.721 22.1819 120.498C23.3231 118.274 23.3231 118.274 24.4642 116.051C25.6054 113.828 25.7292 113.89 26.8704 111.666C28.0115 109.443 27.9319 109.399 29.0731 107.184C30.2142 104.97 30.2231 104.961 31.3642 102.738C32.5054 100.514 32.5938 100.559 33.735 98.3353C34.8761 96.1119 34.7788 96.0588 35.92 93.8354" fill="#0A0E0F"/>
<path d="M17.5996 129.382C18.7408 127.159 18.8292 127.203 19.9704 124.98C21.1115 122.756 21.0408 122.721 22.1819 120.498C23.3231 118.274 23.3231 118.274 24.4642 116.051C25.6054 113.828 25.7292 113.89 26.8704 111.666C28.0115 109.443 27.9319 109.399 29.0731 107.184C30.2142 104.97 30.2231 104.961 31.3642 102.738C32.5054 100.514 32.5938 100.559 33.735 98.3353C34.8761 96.1119 34.7788 96.0588 35.92 93.8354" stroke="#0A0E0F" stroke-width="3" stroke-linecap="round" stroke-linejoin="round"/>
<path d="M71.4019 67.8465C69.8273 69.9636 68.9604 68.6792 66.4392 69.4764C63.9181 70.2736 63.9712 70.4419 61.4589 71.2391C58.9466 72.0363 58.8581 71.7794 56.3369 72.5855C53.8158 73.3916 53.8689 73.5421 51.3477 74.3394C48.8266 75.1366 48.7912 75.0214 46.27 75.8275C43.7489 76.6336 43.7577 76.6424 41.2366 77.4396C38.7154 78.2368 38.795 78.476 36.2739 79.2732C33.7527 80.0704 33.6642 79.7958 31.1431 80.6019C28.6219 81.408 28.7104 81.6914 26.1892 82.4975C23.6681 83.3035 23.2966 85.4294 21.1292 83.9059C18.9619 82.3823 21.0939 81.3814 21.0939 78.8126C21.0939 76.2438 21.2442 76.2438 21.2442 73.675C21.2442 71.1062 20.9346 71.1062 20.9346 68.5374C20.9346 65.9687 20.9346 65.9687 20.9346 63.3999C20.9346 60.8311 21.1381 60.8311 21.1381 58.2623C21.1381 55.6935 21.2354 55.6935 21.2354 53.1159C21.2354 50.5382 21.0673 50.5471 21.0673 47.9694C21.0673 45.3918 21.0673 45.4006 21.0673 42.823C21.0673 40.9628 21.4035 39.1381 22.1289 37.5171C22.8542 35.8961 23.9423 34.3106 25.2958 33.097C26.6492 31.8835 28.3389 31.2192 30.0992 30.6523C32.8062 29.793 32.7531 29.6159 35.4689 28.7478C38.1846 27.8797 38.2112 27.9772 40.9181 27.118C43.625 26.2587 43.5896 26.1436 46.3054 25.2755C49.0212 24.4074 49.0123 24.3897 51.7281 23.5305C54.4439 22.6713 54.5146 22.8839 57.2304 22.0247C59.9462 21.1655 59.9285 21.1035 62.6442 20.2354C64.8381 19.5356 67.1115 19.8368 68.7746 21.0592C70.4377 22.2816 71.4285 24.3632 71.4285 26.6662C71.4285 29.2439 71.6142 29.2439 71.6142 31.8215C71.6142 34.3991 71.4815 34.3991 71.4815 36.9768C71.4815 39.5544 71.3666 39.5544 71.3666 42.1321C71.3666 44.7097 71.5877 44.7097 71.5877 47.2874C71.5877 49.865 71.57 49.865 71.57 52.4427C71.57 55.0203 71.4019 55.0203 71.4019 57.5979C71.4019 60.1756 71.11 60.2022 71.5612 62.7444C72.0123 65.2866 72.9323 65.7915 71.3931 67.8554L71.4019 67.8465Z" fill="#F2765E"/>
<path d="M21.1027 83.959C21.1027 81.3902 21.1647 81.3902 21.1647 78.8214C21.1647 76.2526 21.0143 76.2526 21.0143 73.6838C21.0143 71.115 21.0054 71.115 21.0054 68.5462C21.0054 65.9774 21.1912 65.9774 21.1912 63.4087C21.1912 60.8399 21.1912 60.8399 21.1912 58.2711C21.1912 55.7023 20.9966 55.7023 20.9966 53.1246C20.9966 50.547 21.0231 50.5559 21.0231 47.9782C21.0231 45.4006 21.0054 45.4094 21.0054 42.8318" stroke="#0A0E0F" stroke-linecap="round" stroke-linejoin="round"/>
<path d="M56.2662 43.9834C54.7623 46.1358 53.7981 44.8071 51.3035 45.6044C48.8089 46.4016 48.7912 46.375 46.2966 47.1722C43.8019 47.9694 43.8108 48.0048 41.3073 48.802C38.8039 49.5993 38.5473 51.7252 36.3181 50.3345C34.3189 49.0855 36.2827 48.0137 36.2827 45.6486C36.2827 42.9558 38.0166 40.5288 40.5731 39.7139C43.6162 38.7395 43.6339 38.7749 46.6769 37.8006C49.72 36.8262 49.72 36.8173 52.7631 35.843C54.5058 35.2849 56.2927 36.6225 56.2927 38.4472C57.1419 41.202 57.8585 41.698 56.2662 43.9656V43.9834Z" fill="#0A0E0F"/>
<path d="M101.187 95.9084C98.5773 96.741 98.6835 97.0865 96.0739 97.9191C93.4643 98.7517 93.42 98.6277 90.8104 99.4604C88.2008 100.293 88.1654 100.196 85.5558 101.028C82.9462 101.861 82.9108 101.746 80.2923 102.578C77.6739 103.411 77.6739 103.393 75.0643 104.226C72.4546 105.059 72.4635 105.103 69.845 105.935C67.2266 106.768 67.262 106.874 64.6523 107.707C63.007 108.23 61.3085 108.265 59.6189 108.097C57.9293 107.929 56.2485 107.627 54.727 106.804C52.2323 105.448 52.3296 105.271 49.8439 103.916C47.3581 102.561 47.2785 102.702 44.7839 101.347C42.2893 99.9918 42.245 100.08 39.7593 98.7252C37.2735 97.3699 37.3796 97.1573 34.8939 95.8021C32.4081 94.4468 32.2843 94.6505 29.7896 93.2953C27.295 91.94 24.8446 93.3484 24.8712 90.505C24.8977 87.8654 27.4012 89.8496 29.9223 89.0524C32.4435 88.2551 32.3816 88.0603 34.8939 87.2631C37.4062 86.4658 37.4416 86.5544 39.9627 85.7484C42.4839 84.9423 42.4131 84.7208 44.9254 83.9148C47.4377 83.1087 47.5439 83.4099 50.0562 82.6127C52.5685 81.8155 52.5508 81.7269 55.072 80.9297C57.5931 80.1325 57.5135 79.9022 60.0346 79.0961C62.5558 78.29 62.5912 78.414 65.1123 77.608C67.6335 76.8019 67.66 76.8905 70.1812 76.0844C72.7023 75.2783 72.5785 74.2951 75.2146 74.5166C77.8508 74.738 77.4262 75.6947 79.6554 76.9082C81.8846 78.1217 81.9466 77.9889 84.1758 79.2024C86.405 80.4159 86.4227 80.3716 88.6431 81.5852C90.8635 82.7987 90.722 83.0556 92.9512 84.2691C95.1804 85.4826 95.1716 85.4915 97.4008 86.705C99.63 87.9185 99.7096 87.768 101.93 88.9815C103.425 89.7964 103.982 91.32 103.85 92.755C103.717 94.1899 102.815 95.3857 101.196 95.9084H101.187Z" fill="#F2765E"/>
<path d="M101.284 96.2182C99.5445 96.7733 97.8018 97.3255 96.0561 97.8747C94.3105 98.4239 92.5707 98.9789 90.8369 99.5399C88.2273 100.373 88.13 100.063 85.5115 100.895C82.893 101.728 82.955 101.887 80.3365 102.72C77.718 103.553 77.718 103.535 75.1084 104.367C72.4988 105.2 72.49 105.2 69.8803 106.033C67.2707 106.865 67.2707 106.865 64.6523 107.698C63.0069 108.221 61.2907 108.398 59.61 108.238C57.9292 108.079 56.328 107.485 54.8065 106.662C52.3119 105.306 52.2588 105.404 49.773 104.049C47.2873 102.693 47.1988 102.844 44.713 101.48C42.2273 100.116 42.3777 99.85 39.883 98.4947C37.3884 97.1395 37.2469 97.3963 34.7611 96.0411C32.2753 94.6858 32.2665 94.6858 29.7719 93.3217C27.2773 91.9576 27.4188 91.7007 24.9242 90.3455" stroke="#0A0E0F" stroke-linecap="round" stroke-linejoin="round"/>
<path d="M71.5169 67.7935C71.5169 70.6014 72.5342 73.0019 75.1792 74.4369C73.5427 76.5185 72.6846 75.2075 70.1723 76.0048C67.66 76.802 67.7042 76.9703 65.1919 77.7675C62.6796 78.5647 62.6708 78.5735 60.1585 79.3708C57.6462 80.168 57.6196 80.106 55.0985 80.912C52.5773 81.7181 52.5508 81.6118 50.0296 82.4179C47.5085 83.2239 47.5527 83.3391 45.0315 84.1452C42.5104 84.9512 42.5192 84.9512 39.9981 85.7573C37.4769 86.5634 37.4681 86.5368 34.9469 87.3429C32.4258 88.1489 32.3815 88.0072 29.8604 88.8133C27.3392 89.6193 27.4985 90.4343 24.8535 90.4874C22.2085 89.0524 21.0408 86.6874 21.0408 83.8706C23.0312 82.1256 23.6504 83.1885 26.1627 82.3824C28.675 81.5764 28.675 81.5498 31.1873 80.7526C33.6996 79.9554 33.7085 79.9731 36.2296 79.167C38.7508 78.361 38.7508 78.3698 41.2719 77.5637C43.7931 76.7577 43.8196 76.8463 46.3319 76.0402C48.8442 75.2341 48.8265 75.1633 51.3477 74.3572C53.8688 73.5511 53.8335 73.4448 56.3458 72.6388C58.8581 71.8327 58.8669 71.8415 61.3881 71.0355C63.9092 70.2294 64.0685 70.6635 66.4215 69.4411C68.8896 68.1478 68.9604 67.1823 71.5346 67.7935H71.5169Z" fill="#F2765E"/>
<path d="M24.8357 90.5227C22.1907 89.0877 21.1027 86.7669 21.1027 83.959" stroke="#0A0E0F" stroke-linecap="round" stroke-linejoin="round"/>
<path d="M56.5846 89.7961C56.85 92.3029 56.9473 92.2941 57.2127 94.8008C57.4781 97.3076 57.3719 97.3253 57.6373 99.8321C57.9027 102.339 58.0177 102.33 58.2831 104.846C58.5484 107.361 58.4865 107.361 58.7519 109.877C59.0173 112.393 58.9731 112.393 59.2384 114.908C59.5038 117.424 59.5657 117.415 59.8311 119.922C60.0965 122.429 60.07 122.437 60.3354 124.944C60.6007 127.451 60.5388 127.46 60.7954 129.976C61.0519 132.491 61.1404 132.482 61.4057 134.998C61.6711 137.514 61.6269 137.514 61.8923 140.029" stroke="#0A0E0F" stroke-width="3" stroke-linecap="round" stroke-linejoin="round"/>
<path d="M99.0107 76.3057C99.2761 78.8124 99.4088 78.8036 99.6742 81.3104C99.9396 83.8172 99.7804 83.8349 100.046 86.3505C100.311 88.8661 100.453 88.8484 100.709 91.3552C100.966 93.862 100.807 93.8797 101.072 96.3954C101.337 98.911 101.328 98.911 101.594 101.418C101.859 103.925 101.886 103.925 102.151 106.44C102.417 108.956 102.355 108.956 102.62 111.471C102.885 113.987 103.08 113.961 103.345 116.476C103.611 118.992 103.522 119.001 103.788 121.516C104.053 124.032 104.159 124.023 104.416 126.539" stroke="#0A0E0F" stroke-width="3" stroke-linecap="round" stroke-linejoin="round"/>
<path d="M32.5142 118.646C33.1157 116.104 33.0272 116.086 33.6288 113.544C34.2303 111.002 34.2215 111.002 34.823 108.469C35.4245 105.935 35.5219 105.953 36.1234 103.411C36.7249 100.869 36.7426 100.877 37.3442 98.3441C37.9457 95.8107 37.8838 95.793 38.4765 93.2508C39.0692 90.7086 39.1222 90.7175 39.7238 88.1753C40.3253 85.633 40.3165 85.633 40.918 83.0908" stroke="#0A0E0F" stroke-width="3" stroke-linecap="round" stroke-linejoin="round"/>
<path d="M76.4088 57.1284C74.8342 59.2454 73.9496 58.0319 71.4284 58.838C68.9073 59.644 68.863 59.4846 66.3419 60.2907C63.8207 61.0967 63.803 61.0347 61.2819 61.8319C58.7607 62.6291 58.7696 62.6469 56.2484 63.4529C53.7273 64.259 53.7803 64.4184 51.2592 65.2156C48.738 66.0129 48.7203 65.9509 46.1992 66.7569C43.678 67.563 43.6957 67.5896 41.1746 68.3956C38.6534 69.2017 38.6711 69.246 36.1499 70.052C33.6288 70.8581 33.5846 70.7075 31.0634 71.5136C28.5422 72.3197 28.2415 74.6759 26.0742 73.1612C23.9069 71.6465 26.0123 70.6367 26.0123 68.059C26.0123 65.4814 26.0211 65.4902 26.0211 62.9215C26.0211 60.3527 26.0476 60.3527 26.0476 57.7839C26.0476 55.2151 26.1892 55.2151 26.1892 52.6463C26.1892 50.0775 26.0299 50.0775 26.0299 47.5087C26.0299 44.9399 25.8972 44.9399 25.8972 42.3623C25.8972 39.7847 26.1538 39.7935 26.1538 37.2159C26.1538 34.6382 26.1715 34.6471 26.1715 32.0694C26.1715 30.2093 26.3661 28.3846 27.0915 26.7636C27.8169 25.1426 29.0553 23.7253 30.4088 22.5206C31.7623 21.316 33.3015 20.4922 35.0707 19.9253C37.7776 19.0661 37.7246 18.88 40.4315 18.0208C43.1384 17.1616 43.1561 17.2059 45.8719 16.3378C48.5876 15.4698 48.5876 15.4786 51.2946 14.6194C54.0015 13.7602 53.9573 13.6007 56.673 12.7327C59.3888 11.8646 59.4596 12.0949 62.1753 11.2268C64.8911 10.3588 64.8823 10.3322 67.598 9.47297C69.7919 8.7732 72.0299 9.12751 73.693 10.3499C75.3561 11.5723 76.5857 13.6007 76.5857 15.9038C76.5857 18.4814 76.4619 18.4814 76.4619 21.0591C76.4619 23.6367 76.5238 23.6367 76.5238 26.2144C76.5238 28.792 76.5415 28.792 76.5415 31.3697C76.5415 33.9473 76.568 33.9473 76.568 36.525C76.568 39.1026 76.4265 39.1026 76.4265 41.6802C76.4265 44.2579 76.5946 44.2579 76.5946 46.8355C76.5946 49.4132 76.1346 49.4309 76.5946 51.9642C77.0546 54.4976 77.9569 55.0645 76.4176 57.1284H76.4088Z" fill="#F2765E"/>
<path d="M25.9858 73.1965C25.9858 70.6277 26.03 70.6277 26.03 68.0589C26.03 65.4901 25.9592 65.4901 25.9592 62.9214C25.9592 60.3526 26.0565 60.3526 26.0565 57.7838C26.0565 55.215 26.0654 55.215 26.0654 52.6462C26.0654 50.0774 26.1627 50.0774 26.1627 47.5086C26.1627 44.9398 26.0035 44.9398 26.0035 42.3622C26.0035 39.7846 25.9769 39.7934 25.9769 37.2158C25.9769 34.6381 26.0388 34.647 26.0388 32.0693" stroke="#0A0E0F" stroke-linecap="round" stroke-linejoin="round"/>
<path d="M61.273 33.2476C59.7691 35.4001 58.7518 34.036 56.2572 34.8332C53.7626 35.6304 53.7714 35.6658 51.268 36.463C48.7645 37.2602 48.7645 37.2603 46.2611 38.0575C43.7576 38.8547 43.448 41.0426 41.2187 39.6519C39.2195 38.4029 41.2187 37.2514 41.2187 34.8863C41.2187 32.1935 42.988 29.8373 45.5445 29.0224C48.5876 28.048 48.5787 28.0126 51.6218 27.0382C54.6649 26.0639 54.6826 26.117 57.7345 25.1427C59.4772 24.5846 61.2641 25.8513 61.2641 27.6849C62.1311 30.4574 62.8476 30.98 61.2641 33.2476H61.273Z" fill="white"/>
<path d="M106.158 85.2255C103.549 86.0582 103.531 86.005 100.921 86.8377C98.3118 87.6703 98.3384 87.75 95.7199 88.5827C93.1014 89.4153 93.0926 89.3799 90.483 90.2125C87.8734 91.0452 87.9618 91.3198 85.3522 92.1524C82.7426 92.985 82.6895 92.8433 80.0799 93.676C77.4703 94.5086 77.4968 94.6149 74.8872 95.4475C72.2776 96.2802 72.2334 96.1473 69.6149 96.9799C67.9695 97.5026 66.2357 97.8126 64.5461 97.6531C62.8564 97.4937 61.2199 96.8559 59.6984 96.0321C57.2037 94.6769 57.1418 94.8009 54.6561 93.4456C52.1703 92.0904 52.2941 91.8512 49.7995 90.496C47.3049 89.1407 47.2341 89.2736 44.7484 87.9183C42.2538 86.5631 42.3334 86.4213 39.8388 85.0661C37.3441 83.7108 37.3088 83.7728 34.8141 82.4087C32.3195 81.0446 29.8957 82.6036 29.9222 79.7602C29.9488 77.1206 32.2753 78.8567 34.7964 78.0595C37.3176 77.2623 37.3441 77.3509 39.8564 76.5448C42.3688 75.7387 42.3776 75.7476 44.8988 74.9415C47.4199 74.1355 47.4553 74.2506 49.9764 73.4534C52.4976 72.6562 52.4711 72.5676 54.9834 71.7615C57.4957 70.9555 57.4868 70.92 60.008 70.1228C62.5291 69.3256 62.4761 69.1662 64.9972 68.369C67.5184 67.5629 67.5537 67.6958 70.0749 66.8897C72.5961 66.0836 72.6491 66.2519 75.1703 65.4459C77.6914 64.6398 77.5499 63.3466 80.1861 63.5769C82.8222 63.8072 82.4153 64.8967 84.6357 66.1102C86.8561 67.3237 86.7853 67.4566 89.0145 68.6701C91.2437 69.8837 91.2349 69.8837 93.4641 71.0883C95.6934 72.293 95.826 72.045 98.0553 73.2497C100.285 74.4543 100.249 74.5252 102.47 75.7387C104.69 76.9523 104.655 77.0231 106.884 78.2278C108.379 79.0427 109.175 80.584 109.033 82.0278C108.892 83.4717 107.786 84.7118 106.167 85.2344L106.158 85.2255Z" fill="#F2765E"/>
<path d="M106.15 85.1902C103.54 86.0229 103.522 85.9786 100.913 86.8112C98.303 87.6439 98.3207 87.697 95.7111 88.5297C93.1014 89.3623 93.1014 89.38 90.4918 90.2038C87.8822 91.0276 87.9088 91.125 85.2991 91.9577C82.6895 92.7903 82.7338 92.9409 80.1153 93.7735C77.4968 94.6062 77.3995 94.2961 74.7899 95.1288C72.1803 95.9614 72.1714 95.9614 69.5618 96.7941C67.9164 97.3167 66.2622 97.5027 64.5814 97.3433C62.9007 97.1838 61.2641 96.7675 59.7514 95.9437C57.2568 94.5884 57.133 94.8365 54.6384 93.4724C52.1437 92.1082 52.303 91.8336 49.8084 90.4695C47.3138 89.1054 47.2695 89.2029 44.7837 87.8476C42.298 86.4923 42.3422 86.4038 39.8476 85.0396C37.353 83.6755 37.2114 83.9501 34.7168 82.5949C32.2222 81.2396 32.3461 81.0093 29.8514 79.6541" stroke="#0A0E0F" stroke-linecap="round" stroke-linejoin="round"/>
<path d="M76.453 57.093C76.453 59.9009 77.4261 62.1951 80.0711 63.6301C78.4345 65.7117 77.6118 64.383 75.0995 65.1891C72.5872 65.9952 72.6491 66.1989 70.128 66.9961C67.6068 67.7933 67.5626 67.6693 65.0503 68.4665C62.538 69.2637 62.5645 69.3789 60.0522 70.1849C57.5399 70.991 57.5311 70.991 55.0187 71.7882C52.5064 72.5854 52.4887 72.55 49.9676 73.3472C47.4464 74.1444 47.4287 74.0735 44.9076 74.8708C42.3864 75.668 42.4395 75.8363 39.9184 76.6423C37.3972 77.4484 37.353 77.3155 34.8318 78.1127C32.3107 78.91 32.4434 79.7072 29.7984 79.7692C27.1534 78.3342 26.1449 76.0931 26.1449 73.2852C28.1353 71.5402 28.5953 72.4437 31.1164 71.6376C33.6376 70.8316 33.5934 70.7164 36.1145 69.9192C38.6357 69.122 38.6445 69.1663 41.1657 68.3602C43.6868 67.5541 43.6691 67.5099 46.1903 66.7038C48.7114 65.8977 48.7291 65.9774 51.2503 65.1714C53.7714 64.3653 53.8068 64.4805 56.328 63.6833C58.8491 62.886 58.8137 62.7886 61.3349 61.9914C63.8561 61.1942 63.8737 61.2562 66.3949 60.4501C68.9161 59.6441 69.1195 60.0781 71.4637 58.8646C73.808 57.651 73.8876 56.4729 76.4618 57.0841L76.453 57.093Z" fill="#F2765E"/>
<path d="M29.7895 79.7514C27.1445 78.3164 26.0653 76.0133 26.0653 73.1965" stroke="#0A0E0F" stroke-linecap="round" stroke-linejoin="round"/>
<path d="M61.4413 81.2485C61.1847 84.0388 61.2732 84.0476 61.0167 86.8379C60.7601 89.6281 60.7601 89.6281 60.5036 92.4183C60.247 95.2086 60.1763 95.1997 59.9197 97.9899C59.6632 100.78 59.672 100.78 59.4155 103.57C59.159 106.361 59.2032 106.369 58.9467 109.16C58.6901 111.95 58.7255 111.95 58.469 114.74C58.2124 117.53 58.1151 117.522 57.8586 120.312C57.602 123.102 57.6197 123.111 57.3632 125.901C57.1066 128.691 57.142 128.7 56.8855 131.49" stroke="#0A0E0F" stroke-width="3" stroke-linecap="round" stroke-linejoin="round"/>
<path d="M104.018 67.7756C103.761 70.5659 103.797 70.5659 103.54 73.3561C103.284 76.1463 103.301 76.1463 103.045 78.9366C102.788 81.7268 102.585 81.7091 102.328 84.4993C102.072 87.2896 102.249 87.3073 101.992 90.0975C101.735 92.8877 101.744 92.8877 101.488 95.678C101.231 98.4682 101.072 98.4505 100.815 101.241C100.559 104.031 100.709 104.049 100.453 106.839C100.196 109.629 100.01 109.611 99.7539 112.411C99.4974 115.21 99.5151 115.21 99.2585 118" stroke="#0A0E0F" stroke-width="3" stroke-linecap="round" stroke-linejoin="round"/>
<path d="M17.6085 110.09C19.1743 108.114 19.192 108.132 20.7578 106.157C22.3235 104.182 22.2793 104.146 23.8451 102.171C25.4108 100.196 25.4285 100.204 26.9943 98.2379C28.5601 96.2715 28.5424 96.2449 30.1081 94.2784C31.6739 92.312 31.7447 92.3563 33.3104 90.3898C34.8762 88.4234 34.8408 88.3791 36.4066 86.4126C37.9724 84.4462 38.052 84.4993 39.6178 82.524C41.1835 80.5487 41.1658 80.531 42.7316 78.5468C44.2974 76.5627 44.262 76.5361 45.8278 74.5608" stroke="#0A0E0F" stroke-width="3" stroke-linecap="round" stroke-linejoin="round"/>
<path d="M80.9823 48.5983C78.4877 49.3955 78.5054 49.4486 76.0019 50.2458C73.4985 51.043 73.4985 51.0165 70.995 51.8137C68.4916 52.6109 68.5712 52.8501 66.0677 53.6473C63.5642 54.4445 63.5554 54.409 61.0519 55.2062C58.5485 56.0035 58.4866 55.782 55.9831 56.5792C53.4796 57.3764 53.5062 57.465 51.0116 58.2622C48.5169 59.0594 48.4816 58.9797 45.9869 59.7681C43.4923 60.5564 43.5189 60.6627 41.0154 61.4599C38.5119 62.2571 38.4854 62.1863 35.9819 62.9835C33.4785 63.7807 33.1689 66.1369 31.0192 64.6222C28.8696 63.1075 31.0635 62.08 31.0635 59.5112C31.0635 56.9424 30.9308 56.9424 30.9308 54.3736C30.9308 51.8048 30.8777 51.8048 30.8777 49.236C30.8777 46.6672 30.9396 46.6672 30.9396 44.0985C30.9396 41.5297 31.1431 41.5297 31.1431 38.9609C31.1431 36.3921 31.1077 36.3921 31.1077 33.8145C31.1077 31.2368 30.9927 31.2457 30.9927 28.668C30.9927 26.0904 30.8689 26.0992 30.8689 23.5216C30.8689 21.6614 31.5146 19.9341 32.24 18.3132C32.9654 16.6922 33.9473 15.1243 35.2919 13.9108C36.6366 12.6973 38.2377 11.9266 39.9981 11.3686C42.705 10.5094 42.705 10.4916 45.4119 9.62357C48.1189 8.75549 48.1012 8.67577 50.8081 7.81656C53.515 6.95734 53.4973 6.88648 56.2042 6.01841C58.9112 5.15033 58.9554 5.26549 61.6623 4.40627C64.3692 3.54706 64.3604 3.49391 67.0762 2.62584C69.7919 1.75776 69.7565 1.65147 72.4723 0.792253C74.6662 0.09248 76.8777 0.694816 78.5408 1.90835C80.2039 3.12188 81.4512 5.06175 81.4512 7.36481C81.4512 9.91588 81.3627 9.91588 81.3627 12.4669C81.3627 15.018 81.3096 15.018 81.3096 17.5691C81.3096 20.1202 81.4158 20.1202 81.4158 22.6712C81.4158 25.2223 81.3981 25.2223 81.3981 27.7822C81.3981 30.3422 81.4246 30.3333 81.4246 32.8844C81.4246 35.4354 81.3804 35.4354 81.3804 37.9954C81.3804 40.5553 81.4866 40.5553 81.4866 43.1064C81.4866 45.6574 81.4512 45.6663 81.4512 48.2174C81.4512 48.4477 81.1592 48.5185 80.9381 48.5894L80.9823 48.5983Z" fill="#F2765E"/>
<path d="M30.975 64.6665C30.975 62.0977 30.9485 62.0977 30.9485 59.5289C30.9485 56.9601 31.0281 56.9601 31.0281 54.3913C31.0281 51.8225 31.0281 51.8225 31.0281 49.2537C31.0281 46.685 30.9662 46.685 30.9662 44.1162C30.9662 41.5474 30.9485 41.5474 30.9485 38.9786C30.9485 36.4098 30.9927 36.4098 30.9927 33.8322C30.9927 31.2545 31.1166 31.2634 31.1166 28.6857C31.1166 26.1081 31.1077 26.117 31.1077 23.5393" stroke="#0A0E0F" stroke-linecap="round" stroke-linejoin="round"/>
<path d="M65.7758 24.8769C63.4139 25.6298 63.3874 25.559 61.0254 26.3119C58.6635 27.0648 58.6724 27.1002 56.3104 27.8531C53.9485 28.6061 53.9574 28.6415 51.5866 29.4033C49.2158 30.1651 49.2247 30.1651 46.8539 30.918C46.5354 31.0243 46.2258 30.7497 46.2258 30.4131C46.2258 28.3935 46.2258 28.3935 46.2258 26.3739C46.2258 23.6811 47.942 21.316 50.5074 20.5011C53.5504 19.5267 53.5416 19.4736 56.5847 18.5081C59.6278 17.5426 59.6454 17.578 62.6885 16.6036C64.4312 16.0456 66.227 17.3477 66.227 19.1724C66.227 21.7146 66.2358 21.7146 66.2358 24.248C66.2358 24.5226 66.0324 24.7972 65.767 24.8858L65.7758 24.8769Z" fill="white"/>
<path d="M66.2182 24.7439C63.8386 25.5057 63.8209 25.4614 61.4412 26.2232C59.0616 26.9849 59.0705 27.0115 56.682 27.7733C54.2936 28.5351 54.3024 28.5351 51.9139 29.2968C49.5255 30.0586 49.5255 30.0409 47.1459 30.8027C46.677 30.9533 46.1993 30.5812 46.1993 30.0852C46.1993 28.2162 46.1639 28.2162 46.1639 26.356" stroke="#0A0E0F" stroke-linecap="round" stroke-linejoin="round"/>
<path d="M111.157 76.8282C108.547 77.6609 108.591 77.7938 105.973 78.6264C103.354 79.459 103.328 79.3527 100.718 80.1854C98.1085 81.018 98.0289 80.7789 95.4193 81.6115C92.8097 82.4441 92.9246 82.7985 90.3062 83.6311C87.6966 84.4637 87.6258 84.26 85.0162 85.0926C82.4066 85.9253 82.4597 86.1024 79.8412 86.9351C77.2227 87.7677 77.1431 87.502 74.5247 88.3346C72.8793 88.8573 71.1897 89.185 69.5 89.0256C67.8104 88.8661 66.1031 88.4498 64.5816 87.6171C62.087 86.2619 62.1577 86.1379 59.672 84.7826C57.1862 83.4274 57.2216 83.3565 54.727 81.9924C52.2323 80.6283 52.197 80.7169 49.7023 79.3616C47.2077 78.0063 47.1812 78.0595 44.6866 76.7042C42.192 75.349 42.2362 75.2604 39.7416 73.9051C37.247 72.5499 34.6727 74.0646 34.6727 71.2212C34.6727 68.5993 37.2823 70.5923 39.7858 69.7951C42.2893 68.9979 42.2539 68.8827 44.7485 68.0855C47.2431 67.2883 47.2166 67.182 49.72 66.3848C52.2235 65.5876 52.2943 65.809 54.7889 65.0118C57.2835 64.2146 57.2481 64.0817 59.7516 63.2845C62.255 62.4873 62.2285 62.4165 64.732 61.6193C67.2354 60.822 67.2354 60.822 69.73 60.0248C72.2247 59.2276 72.2335 59.2276 74.737 58.4304C77.2404 57.6332 77.1962 57.4915 79.6996 56.6943C82.2031 55.8971 82.2031 55.8971 84.7066 55.0998C84.9277 55.029 85.2285 55.2327 85.432 55.339C87.6258 56.5348 87.5993 56.5968 89.7931 57.7926C91.987 58.9885 92.0489 58.8733 94.2516 60.0691C96.4543 61.2649 96.4454 61.2649 98.6393 62.4607C100.833 63.6566 100.886 63.568 103.08 64.7638C105.274 65.9596 105.203 66.1102 107.397 67.306C109.591 68.5018 109.653 68.3955 111.855 69.6002C113.35 70.4151 114.076 72.045 113.943 73.48C113.81 74.9149 112.758 76.3056 111.139 76.8194L111.157 76.8282Z" fill="#FCC7AA"/>
<path d="M111.148 76.8017C108.538 77.6343 108.52 77.5812 105.911 78.4138C103.301 79.2465 103.257 79.1047 100.639 79.9374C98.0201 80.77 98.0554 80.8586 95.4458 81.6913C92.8362 82.5239 92.8628 82.5948 90.2443 83.4274C87.6258 84.26 87.6435 84.3043 85.0339 85.137C82.4243 85.9696 82.3712 85.8367 79.7616 86.6694C77.152 87.502 77.1343 87.4577 74.5158 88.2904C72.8704 88.813 71.2074 88.999 69.5178 88.8396C67.8281 88.6801 66.227 88.2018 64.7054 87.378C63.0424 86.4745 61.3852 85.5681 59.7339 84.6586C57.2393 83.3034 57.1243 83.5248 54.6297 82.1696C52.1351 80.8143 52.1881 80.7257 49.6935 79.3705C47.1989 78.0152 47.2254 77.9709 44.7308 76.6157C42.2362 75.2604 42.2539 75.225 39.7681 73.8609C37.2824 72.4968 37.2204 72.6031 34.7258 71.2478" stroke="#0A0E0F" stroke-linecap="round" stroke-linejoin="round"/>
<path d="M81.3981 48.5895C81.3981 51.3975 82.3889 53.6562 85.025 55.1001C83.3885 57.1817 82.6189 56.0036 80.0977 56.8096C77.5765 57.6157 77.5854 57.6334 75.0731 58.4395C72.5608 59.2456 72.5785 59.3076 70.0573 60.1136C67.5362 60.9197 67.4919 60.778 64.9796 61.584C62.4673 62.3901 62.4496 62.3458 59.9285 63.143C57.4073 63.9402 57.4073 63.9225 54.8862 64.7286C52.365 65.5347 52.4269 65.7295 49.9146 66.5267C47.4023 67.3239 47.3669 67.2354 44.8458 68.0414C42.3246 68.8475 42.2981 68.7678 39.7769 69.5739C37.2558 70.3799 37.3973 71.2568 34.7523 71.3189C32.1073 69.8839 31.0458 67.5188 31.0458 64.7109C33.0362 62.9659 33.5404 63.896 36.0527 63.0899C38.565 62.2838 38.5915 62.3635 41.1127 61.5663C43.6339 60.7691 43.6162 60.7248 46.1373 59.9188C48.6585 59.1127 48.6231 59.0064 51.1442 58.2092C53.6654 57.4031 53.6742 57.4563 56.1954 56.6502C58.7165 55.8441 58.6812 55.729 61.1935 54.9318C63.7058 54.1346 63.7235 54.17 66.2446 53.3639C68.7658 52.5579 68.7835 52.6376 71.3046 51.8315C73.8258 51.0254 74.0115 51.4683 76.3646 50.2548C78.7177 49.0413 78.8238 47.9872 81.3981 48.5984V48.5895Z" fill="#F2765E"/>
<path d="M34.7436 71.2125C32.0986 69.7775 31.0105 67.4745 31.0105 64.6665" stroke="#0A0E0F" stroke-linecap="round" stroke-linejoin="round"/>
<path d="M70.2785 59.9541C68.6243 62.0357 67.6778 60.6539 65.1389 61.4599C62.6001 62.266 62.6443 62.39 60.1143 63.1961C57.5843 64.0022 57.5931 64.0287 55.0543 64.8348C52.5155 65.6409 52.4801 65.5169 49.9501 66.3229C47.4201 67.129 47.4378 67.191 44.8989 67.9971C42.3601 68.8031 42.3335 68.7234 39.7947 69.5295C37.2558 70.3355 37.3974 71.0973 34.7435 71.1593" stroke="#0A0E0F" stroke-linecap="round" stroke-linejoin="round"/>
<path d="M259.878 104.013C257.375 104.279 257.392 104.483 254.889 104.749C252.385 105.014 252.368 104.917 249.864 105.183C247.361 105.448 247.352 105.395 244.84 105.661C242.327 105.927 242.336 105.936 239.824 106.201C237.312 106.467 237.303 106.361 234.799 106.627C232.296 106.892 232.305 107.069 229.801 107.335C227.298 107.601 227.289 107.548 224.785 107.813C222.282 108.079 222.273 108.017 219.761 108.283C217.248 108.549 217.266 108.682 214.754 108.947C212.242 109.213 212.224 109.018 209.712 109.284" stroke="#0A0E0F" stroke-width="3" stroke-linecap="round" stroke-linejoin="round"/>
<path d="M273.351 146.505C270.847 146.77 270.865 146.93 268.353 147.196C265.84 147.461 265.849 147.497 263.346 147.762C260.842 148.028 260.833 148.01 258.33 148.276C255.827 148.542 255.809 148.383 253.297 148.648C250.784 148.914 250.793 148.949 248.281 149.206C245.768 149.463 245.768 149.463 243.265 149.729C240.762 149.995 240.77 150.11 238.258 150.376C235.746 150.641 235.746 150.579 233.233 150.845C230.721 151.111 230.712 151.013 228.2 151.27C225.688 151.527 225.714 151.74 223.202 152.005" stroke="#0A0E0F" stroke-width="3" stroke-linecap="round" stroke-linejoin="round"/>
<path d="M231.11 69.9902C233.331 71.1329 233.286 71.2215 235.498 72.373C237.71 73.5245 237.692 73.5688 239.912 74.7115C242.133 75.8542 242.203 75.7124 244.424 76.8551C246.644 77.9978 246.609 78.0686 248.829 79.2202C251.05 80.3717 251.076 80.3097 253.296 81.4523C255.517 82.595 255.517 82.595 257.737 83.7377C259.958 84.8803 259.887 85.0221 262.107 86.1647C264.328 87.3074 264.337 87.2985 266.557 88.4412" stroke="#0A0E0F" stroke-width="3" stroke-linecap="round" stroke-linejoin="round"/>
<path d="M244.565 112.03C246.786 113.172 246.768 113.208 248.988 114.351C251.209 115.493 251.191 115.538 253.403 116.68C255.614 117.823 255.614 117.832 257.835 118.974C260.055 120.117 260.099 120.037 262.311 121.18C264.522 122.323 264.496 122.394 266.716 123.536C268.936 124.679 268.919 124.723 271.139 125.866C273.36 127.008 273.386 126.973 275.606 128.116C277.827 129.258 277.871 129.179 280.091 130.33" stroke="#0A0E0F" stroke-width="3" stroke-linecap="round" stroke-linejoin="round"/>
<path d="M273.607 79.9907C274.439 82.6038 274.412 82.6126 275.244 85.2257C276.075 87.8388 276.288 87.7768 277.119 90.3899C277.951 93.0029 277.853 93.0384 278.685 95.6514C279.516 98.2645 279.472 98.2822 280.304 100.895C281.135 103.508 281.126 103.517 281.958 106.13C282.79 108.743 282.763 108.752 283.595 111.374C284.426 113.996 284.461 113.978 285.293 116.6C285.815 118.248 286.01 119.957 285.85 121.649C285.691 123.341 285.081 124.927 284.258 126.45C282.905 128.948 282.966 128.975 281.613 131.473C280.26 133.971 280.224 133.944 278.871 136.442C277.517 138.94 277.473 138.913 276.12 141.402C274.766 143.892 274.837 143.936 273.483 146.434C272.13 148.932 272.077 148.905 270.723 151.394C269.37 153.883 270.98 156.399 268.14 156.372C265.504 156.346 267.495 153.892 266.69 151.368C265.885 148.843 265.655 148.923 264.858 146.398C264.062 143.874 264.239 143.821 263.443 141.296C262.647 138.772 262.638 138.772 261.842 136.256C261.046 133.74 260.807 133.811 260.002 131.287C259.197 128.762 259.436 128.691 258.631 126.167C257.826 123.642 257.711 123.687 256.906 121.162C256.101 118.638 256.048 118.655 255.243 116.131C254.438 113.606 254.429 113.606 253.624 111.082C252.819 108.557 251.819 108.637 252.049 105.997C252.279 103.358 253.429 103.836 254.641 101.613C255.853 99.3895 255.782 99.3452 256.994 97.1219C258.206 94.8985 258.312 94.9605 259.524 92.7283C260.736 90.4962 260.55 90.3987 261.762 88.1754C262.974 85.9521 262.912 85.9166 264.124 83.6844C265.336 81.4523 265.398 81.4877 266.61 79.2644C267.424 77.7674 268.945 77.2093 270.387 77.3422C271.829 77.4751 273.094 78.3609 273.607 79.9818V79.9907Z" fill="#D8E0A1"/>
<path d="M274.218 159.579C273.43 157.099 273.483 157.081 272.696 154.601C271.909 152.121 271.98 152.094 271.192 149.614C270.405 147.134 270.529 147.089 269.733 144.609C268.936 142.129 268.848 142.155 268.061 139.675C267.273 137.195 267.167 137.23 266.38 134.741C265.593 132.252 265.699 132.226 264.911 129.745C264.124 127.265 264.257 127.221 263.47 124.741C262.682 122.261 262.673 122.261 261.877 119.78C261.081 117.3 261.072 117.3 260.276 114.82C259.48 112.34 259.471 112.34 258.684 109.86C258.631 109.691 258.657 109.505 258.825 109.505C261.373 109.505 261.373 109.612 263.912 109.612C266.451 109.612 266.46 109.718 268.998 109.718C271.537 109.718 271.546 109.496 274.085 109.496C276.624 109.496 276.633 109.629 279.171 109.629C281.71 109.629 281.719 109.488 284.258 109.488C286.797 109.488 286.806 109.603 289.353 109.603C291.901 109.603 291.901 109.461 294.449 109.461C296.996 109.461 296.996 109.7 299.544 109.7C301.402 109.7 303.171 109.992 304.79 110.719C306.409 111.445 307.824 112.623 309.027 113.978C310.23 115.334 311.327 116.76 311.885 118.531C312.743 121.242 312.566 121.304 313.424 124.023C314.282 126.743 314.255 126.752 315.122 129.462C315.989 132.173 316.263 132.084 317.121 134.803C317.98 137.523 317.688 137.611 318.555 140.331C319.421 143.05 319.519 143.015 320.386 145.734C321.253 148.453 321.288 148.436 322.155 151.155C322.854 153.352 322.376 155.566 321.164 157.232C319.952 158.897 317.98 159.871 315.68 159.871C313.141 159.871 313.141 159.995 310.593 159.995C308.045 159.995 308.054 160.146 305.506 160.146C302.959 160.146 302.968 160.022 300.42 160.022C297.872 160.022 297.872 159.942 295.333 159.942C292.795 159.942 292.795 159.924 290.247 159.924C287.699 159.924 287.699 160.11 285.16 160.11C282.621 160.11 282.613 160.031 280.065 160.031C277.517 160.031 277.517 159.995 274.97 159.995C274.678 159.995 274.288 159.889 274.2 159.605L274.218 159.579Z" fill="#81AA68"/>
<path d="M315.697 160.031C313.123 160.031 313.123 159.933 310.549 159.933C307.974 159.933 307.975 159.916 305.4 159.916C302.826 159.916 302.826 159.978 300.252 159.978C297.678 159.978 297.678 160.057 295.103 160.057C292.529 160.057 292.529 160.013 289.955 160.013C287.381 160.013 287.381 160.048 284.806 160.048C282.232 160.048 282.232 159.916 279.649 159.916C277.066 159.916 277.075 159.916 274.492 159.916" stroke="#0A0E0F" stroke-linecap="round" stroke-linejoin="round"/>
<path d="M298.279 144.405C297.527 142.04 297.518 142.04 296.766 139.675C296.015 137.31 296.014 137.31 295.263 134.945C294.511 132.58 294.484 132.58 293.732 130.215C292.98 127.85 292.989 127.841 292.237 125.476C292.122 125.122 292.396 124.723 292.768 124.723C294.089 124.723 295.413 124.723 296.74 124.723C299.429 124.723 301.773 126.512 302.587 129.081C303.56 132.128 303.596 132.119 304.569 135.167C305.542 138.214 305.551 138.214 306.515 141.27C307.072 143.015 305.754 144.813 303.923 144.813C301.358 144.813 301.358 144.769 298.783 144.769C298.545 144.769 298.35 144.645 298.279 144.414V144.405Z" fill="white"/>
<path d="M303.923 144.822C302.207 144.822 300.488 144.822 298.766 144.822C298.536 144.822 298.368 144.644 298.297 144.423C297.518 141.969 297.501 141.969 296.713 139.516C295.926 137.062 295.935 137.053 295.148 134.6C294.36 132.146 294.343 132.146 293.564 129.684C292.786 127.221 292.812 127.212 292.025 124.759" stroke="#0A0E0F" stroke-linecap="round" stroke-linejoin="round"/>
<path d="M269.034 158.994C270.44 159.747 272.74 160.004 274.421 160.004C274.465 157.364 273.82 157.444 273.023 154.928C272.227 152.413 272.086 152.448 271.281 149.933C270.476 147.417 270.573 147.381 269.777 144.857C268.981 142.332 268.848 142.377 268.052 139.852C267.256 137.328 267.415 137.275 266.61 134.759C265.805 132.243 265.637 132.288 264.841 129.763C264.045 127.239 264.036 127.247 263.231 124.723C262.426 122.199 262.505 122.172 261.709 119.647C260.913 117.123 260.904 117.123 260.099 114.598C259.294 112.074 259.993 111.728 258.533 109.514C256.817 109.514 254.393 109.239 253.005 108.451C252.279 107.362 252.598 107.246 252.005 106.077C251.757 106.538 251.793 106.874 251.846 107.229C251.846 107.246 251.917 107.229 251.917 107.255C251.917 107.291 251.837 107.3 251.846 107.335C251.863 107.397 251.943 107.432 251.97 107.494C252.766 110.01 252.668 110.037 253.465 112.552C254.261 115.068 254.287 115.059 255.083 117.575C255.88 120.09 255.88 120.09 256.685 122.606C257.49 125.122 257.622 125.077 258.427 127.593C259.232 130.109 259.002 130.179 259.798 132.695C260.595 135.211 260.63 135.202 261.426 137.718C262.222 140.233 262.258 140.224 263.063 142.74C263.868 145.256 263.806 145.273 264.602 147.789C265.398 150.305 265.425 150.305 266.221 152.82C267.017 155.336 267.132 155.3 267.937 157.825C267.937 157.843 268.017 157.843 268.017 157.86C268.017 157.887 267.91 157.922 267.919 157.949C267.919 157.949 267.919 157.949 267.919 157.967C268.078 158.401 268.521 158.684 269.043 158.968C269.043 158.968 268.981 158.994 268.99 158.994C268.998 158.994 269.025 159.021 269.025 159.021L269.034 158.994Z" fill="#81AA68"/>
<path d="M251.899 107.503C252.695 110.019 252.828 109.975 253.624 112.49C254.42 115.006 254.438 114.997 255.243 117.513C256.048 120.028 255.8 120.108 256.596 122.624C257.392 125.139 257.507 125.104 258.303 127.62C259.1 130.135 259.02 130.162 259.825 132.678C260.63 135.193 260.763 135.149 261.559 137.665C262.355 140.18 262.346 140.18 263.142 142.696C263.938 145.211 263.832 145.247 264.628 147.763C265.425 150.278 265.619 150.216 266.424 152.741C267.229 155.265 267.132 155.292 267.928 157.807C267.928 157.825 267.893 157.86 267.901 157.878C267.901 157.905 267.848 157.931 267.866 157.958H267.893C268.052 158.392 268.538 158.658 269.051 158.932L269.078 158.915C269.078 158.915 269.025 158.985 269.034 158.985C270.44 159.738 272.82 159.978 274.501 159.978" stroke="#0A0E0F" stroke-linecap="round" stroke-linejoin="round"/>
<path d="M170.231 154.875C167.922 153.538 168.011 153.387 165.693 152.05C163.375 150.712 163.367 150.739 161.049 149.401C158.731 148.063 158.722 148.09 156.405 146.744C154.087 145.397 154.122 145.353 151.805 144.007C150.221 143.094 149.664 141.128 150.575 139.542C152.733 138.098 152.963 138.532 155.325 137.443C157.687 136.353 157.643 136.265 160.005 135.184C162.367 134.103 162.393 134.165 164.747 133.076C167.1 131.986 167.135 132.04 169.488 130.959C171.841 129.878 171.779 129.71 174.141 128.62C176.503 127.531 176.662 127.841 178.821 126.397C179.732 124.812 181.802 124.404 183.385 125.316C185.694 126.654 185.783 126.503 188.092 127.841C190.4 129.178 190.383 129.214 192.7 130.551C195.018 131.889 194.974 131.969 197.283 133.306C199.592 134.644 199.538 134.741 201.856 136.079C203.44 136.991 204.094 139.002 203.174 140.587C201.016 142.031 200.742 141.562 198.388 142.642C196.035 143.723 196.044 143.767 193.682 144.848C191.32 145.929 191.329 145.938 188.967 147.018C186.605 148.099 186.579 148.037 184.217 149.126C181.855 150.216 181.873 150.243 179.511 151.332C177.149 152.422 177.025 152.182 174.858 153.626C173.947 155.212 171.788 155.779 170.205 154.857L170.231 154.875Z" fill="#FFCD6E"/>
<path d="M172.416 150.96C172.416 150.96 172.416 150.818 172.398 150.809C170.302 149.596 170.32 149.569 168.232 148.356C166.144 147.142 166.082 147.24 163.986 146.026C161.889 144.813 161.854 144.875 159.757 143.661C157.661 142.447 157.67 142.43 155.573 141.225C155.529 141.199 155.591 141.145 155.617 141.11C158.174 139.914 158.112 139.781 160.677 138.603C163.243 137.425 163.26 137.469 165.826 136.291C168.391 135.113 168.444 135.237 171.018 134.05C173.593 132.863 173.575 132.837 176.14 131.659C178.706 130.48 178.697 130.454 181.262 129.267C181.28 129.232 181.307 129.099 181.324 129.099C181.342 129.099 181.351 129.196 181.36 129.205C183.456 130.418 183.474 130.374 185.57 131.588C187.667 132.801 187.64 132.837 189.737 134.05C191.833 135.264 191.833 135.264 193.93 136.477C196.027 137.691 195.982 137.762 198.079 138.975C198.123 139.002 198.158 138.931 198.141 138.975C195.584 140.171 195.602 140.215 193.037 141.393C190.471 142.571 190.453 142.536 187.897 143.723C185.34 144.91 185.367 144.981 182.802 146.168C180.236 147.346 180.165 147.195 177.591 148.373C175.017 149.552 175.088 149.702 172.531 150.898C172.513 150.933 172.443 150.969 172.416 150.969V150.96Z" stroke="#0A0E0F" stroke-miterlimit="10"/>
<path d="M196.327 101.418C196.327 103.251 195.885 105.112 194.824 106.777C193.904 108.221 192.497 109.505 190.896 110.772C189.542 111.844 187.95 112.844 186.172 113.748C184.606 114.554 182.837 115.165 180.988 115.821C179.299 116.414 177.556 117.07 175.672 117.521C173.92 117.947 172.062 118.177 170.16 118.46C168.365 118.735 166.516 119.001 164.614 119.134C162.712 119.266 160.925 119.435 159.023 119.435C157.121 119.435 155.264 119.266 153.441 119.134C151.619 119.001 149.646 119.01 147.85 118.744C145.949 118.46 144.17 117.823 142.41 117.397C140.526 116.946 138.721 116.476 137.04 115.883C135.192 115.227 133.369 114.696 131.804 113.89C130.025 112.977 128.407 111.968 127.044 110.896C125.443 109.629 124.125 108.221 123.214 106.777C122.152 105.112 121.807 103.242 121.807 101.409C121.807 99.5753 122.391 97.8569 123.453 96.1916C124.373 94.7478 125.602 93.3748 127.195 92.1081C128.548 91.0363 130.079 89.938 131.857 89.0344C133.422 88.2284 135.218 87.6703 137.067 87.0149C138.757 86.4214 140.508 85.7925 142.392 85.3407C144.144 84.9155 145.975 84.5169 147.868 84.2246C149.664 83.95 151.53 83.7994 153.432 83.6577C155.255 83.5248 157.121 83.3123 159.023 83.3123C160.925 83.3123 162.792 83.454 164.614 83.5869C166.436 83.7197 168.391 83.826 170.196 84.1006C172.098 84.3841 173.92 84.8358 175.672 85.261C177.556 85.7127 179.352 86.2531 181.041 86.8466C182.89 87.502 184.58 88.3081 186.154 89.1142C187.932 90.0265 189.604 90.9035 190.958 91.9753C192.559 93.2419 193.842 94.6504 194.762 96.0853C195.823 97.7506 196.319 99.5665 196.319 101.4L196.327 101.418Z" fill="#EDEBFC"/>
<path d="M133.36 98.1936C134.502 95.9702 134.546 95.9968 135.687 93.7735C136.828 91.5502 136.89 91.5856 138.04 89.3623C139.19 87.1389 139.172 87.1301 140.314 84.9156C141.455 82.7011 141.419 82.6745 142.56 80.4512C143.702 78.2279 143.737 78.2456 144.878 76.0223C146.019 73.7989 145.922 73.7458 147.063 71.5225C148.204 69.2991 148.275 69.3346 149.425 67.1112C150.575 64.8879 150.504 64.8525 151.654 62.6292" stroke="#0A0E0F" stroke-width="3" stroke-linecap="round" stroke-linejoin="round"/>
<path d="M193.107 96.3599C191.966 94.1366 191.851 94.1986 190.71 91.9752C189.569 89.7519 189.551 89.7608 188.41 87.5374C187.269 85.3141 187.242 85.323 186.101 83.1085C184.96 80.894 185.066 80.832 183.925 78.6087C182.784 76.3854 182.775 76.3942 181.634 74.1709C180.493 71.9476 180.484 71.9564 179.334 69.7331C178.184 67.5098 178.113 67.5452 176.963 65.3219C175.813 63.0985 175.857 63.072 174.716 60.8486" stroke="#0A0E0F" stroke-width="3" stroke-linecap="round" stroke-linejoin="round"/>
<path d="M167.321 69.3611C167.321 71.9387 167.48 71.9387 167.48 74.5164C167.48 77.094 167.427 77.094 167.427 79.6717C167.427 82.2493 167.471 82.2493 167.471 84.827C167.471 87.4046 167.347 87.4046 167.347 89.9822C167.347 92.5599 167.347 92.5599 167.347 95.1375C167.347 97.7152 167.392 97.7152 167.392 100.293C167.392 102.87 167.294 102.87 167.294 105.457C167.294 108.043 167.285 108.035 167.285 110.621C167.285 113.208 167.445 113.199 167.445 115.785" stroke="#0A0E0F" stroke-width="3" stroke-linecap="round" stroke-linejoin="round"/>
<path d="M190.719 59.5111C190.719 61.2649 189.976 62.8771 188.693 64.4006C187.649 65.6407 186.287 66.8454 184.544 67.8641C183.093 68.7144 181.448 69.5116 179.608 70.1582C177.989 70.734 176.193 71.0972 174.327 71.4869C172.62 71.8412 170.824 72.0893 168.948 72.2753C167.188 72.4436 165.383 72.5853 163.517 72.5853C161.65 72.5853 159.819 72.6827 158.068 72.5144C156.192 72.3284 154.397 71.9564 152.689 71.6021C150.823 71.2123 149.045 70.7694 147.417 70.2025C145.577 69.5559 143.976 68.6524 142.525 67.8109C140.782 66.7922 139.278 65.7382 138.235 64.4981C136.943 62.9745 136.324 61.2738 136.324 59.5199C136.324 57.7661 137.076 56.1805 138.367 54.6569C139.411 53.4168 140.712 52.1236 142.454 51.1049C143.905 50.2546 145.559 49.4485 147.399 48.8019C149.018 48.2261 150.849 47.9781 152.716 47.5795C154.423 47.2252 156.21 46.8709 158.077 46.6848C159.837 46.5165 161.65 46.304 163.517 46.304C165.383 46.304 167.197 46.4988 168.957 46.676C170.833 46.862 172.611 47.2075 174.327 47.5618C176.193 47.9515 177.998 48.2615 179.626 48.8285C181.466 49.4751 183.111 50.2989 184.562 51.1492C186.305 52.1679 187.782 53.284 188.826 54.5241C190.117 56.0476 190.728 57.7661 190.728 59.5199L190.719 59.5111Z" fill="#C8862A"/>
<path d="M190.807 59.511C190.807 61.2648 190.082 62.9656 188.79 64.4891C187.747 65.7292 186.243 66.7922 184.5 67.8108C183.049 68.6612 181.404 69.4318 179.564 70.0784C177.945 70.6542 176.22 71.2831 174.354 71.6729C172.646 72.0272 170.824 72.2929 168.957 72.4789C167.197 72.6472 165.366 72.6827 163.508 72.6827C161.65 72.6827 159.819 72.6384 158.059 72.4701C156.184 72.2841 154.37 72.0626 152.654 71.6994C150.787 71.3097 149.027 70.7782 147.399 70.2113C145.559 69.5647 143.985 68.6169 142.534 67.7754C140.791 66.7567 139.34 65.6761 138.288 64.436C136.996 62.9124 136.35 61.2648 136.35 59.511" stroke="#0A0E0F" stroke-linecap="round" stroke-linejoin="round"/>
<path d="M149.54 57.2704C149.54 58.8559 150.708 60.3795 152.654 61.5221C154.016 62.3193 155.794 62.9571 157.785 63.3734C159.448 63.7189 161.297 63.9138 163.216 63.9138C165.136 63.9138 166.993 63.7278 168.648 63.3823C170.647 62.966 172.354 62.2131 173.725 61.4158C175.672 60.282 176.83 58.8559 176.83 57.2704C177.361 54.427 177.538 54.4624 178.21 51.6456C178.883 48.8288 178.945 48.8465 179.617 46.0386C180.289 43.2306 180.236 43.2129 180.908 40.3961C181.581 37.5793 181.501 37.5616 182.173 34.7447C182.846 31.9279 185.234 31.5028 183.633 29.0934C182.227 26.9764 181.041 29.2263 178.493 29.2263C175.946 29.2263 175.946 29.1731 173.407 29.1731C170.868 29.1731 170.859 29.058 168.32 29.058C165.782 29.058 165.773 29.1643 163.234 29.1643C160.695 29.1643 160.686 29.1288 158.147 29.1288C155.608 29.1288 155.6 29.182 153.052 29.182C150.504 29.182 150.504 29.2174 147.957 29.2174C145.409 29.2174 144.232 26.9675 142.817 29.0934C141.216 31.5028 143.551 31.9279 144.223 34.7447C144.896 37.5616 144.781 37.5881 145.453 40.3961C146.125 43.204 146.258 43.1775 146.93 45.9943C147.603 48.8111 147.567 48.8199 148.275 51.6279C148.983 54.4358 149.018 54.427 149.549 57.2792L149.54 57.2704Z" fill="#F9A619"/>
<path d="M149.602 57.2615C149.602 58.847 150.725 60.344 152.672 61.4867C154.034 62.2839 155.812 62.8419 157.811 63.2583C159.474 63.6037 161.297 63.8695 163.225 63.8695C165.153 63.8695 166.967 63.586 168.63 63.2405C170.629 62.8242 172.381 62.2307 173.743 61.4335C175.689 60.2997 176.839 58.8559 176.839 57.2703" stroke="#0A0E0F" stroke-linecap="round" stroke-linejoin="round"/>
<path d="M146.249 44.0012C146.249 45.5602 147.152 47.004 148.717 48.2441C149.885 49.1654 151.398 49.9892 153.194 50.6181C154.68 51.1407 156.352 51.4684 158.147 51.7342C159.749 51.9733 161.447 52.177 163.216 52.177C164.985 52.177 166.693 52.0619 168.294 51.8227C170.09 51.5481 171.744 51.1141 173.23 50.5915C175.026 49.9537 176.547 49.1565 177.715 48.2353C179.281 46.9952 180.254 45.5602 180.254 44.0012" stroke="#0A0E0F" stroke-linecap="round" stroke-linejoin="round"/>
<path d="M183.669 29.111C183.669 30.6523 182.881 32.1493 181.563 33.4425C180.537 34.4523 179.104 35.2761 177.459 36.0556C176.096 36.7022 174.601 37.3754 172.903 37.8183C171.408 38.2081 169.771 38.3587 168.073 38.5624C166.507 38.7484 164.888 38.9433 163.207 38.9433C161.527 38.9433 159.89 38.8901 158.324 38.7041C156.635 38.5004 155.025 38.1726 153.521 37.7829C151.831 37.34 150.319 36.6934 148.965 36.0468C147.32 35.2673 145.842 34.4878 144.825 33.478C143.516 32.1847 142.914 30.6523 142.914 29.111C142.914 27.5698 143.516 26.0373 144.825 24.7441C145.851 23.7343 147.32 22.9548 148.965 22.1753C150.327 21.5287 151.822 20.8378 153.512 20.3949C155.007 20.0051 156.626 19.704 158.324 19.5002C159.89 19.3142 161.527 19.2522 163.207 19.2522C164.888 19.2522 166.525 19.3762 168.082 19.5622C169.771 19.766 171.39 20.0671 172.885 20.4569C174.575 20.8998 176.114 21.4755 177.467 22.1222C179.113 22.9016 180.555 23.7431 181.581 24.7529C182.89 26.0462 183.651 27.5698 183.651 29.111H183.669Z" fill="#FFCD6E"/>
<path d="M146.276 29.2883C146.276 27.7293 147.152 26.2855 148.726 25.0454C149.894 24.1242 151.407 23.3004 153.202 22.6626C154.688 22.14 156.343 21.6882 158.138 21.4225C159.74 21.1833 161.456 21.0593 163.225 21.0593C164.994 21.0593 166.693 21.2631 168.294 21.5022C170.09 21.7768 171.779 22.0957 173.257 22.6183C175.052 23.2561 176.609 24.0444 177.777 24.9657C179.343 26.2058 180.245 27.7205 180.245 29.2794" stroke="#0A0E0F" stroke-linecap="round" stroke-linejoin="round"/>
<path d="M183.509 29.1109C183.509 30.6522 182.899 32.1669 181.59 33.469C180.563 34.4788 179.113 35.2849 177.467 36.0643C176.105 36.711 174.61 37.4019 172.92 37.8448C171.425 38.2345 169.789 38.4028 168.09 38.5977C166.525 38.7837 164.897 38.9609 163.216 38.9609C161.535 38.9609 159.908 38.766 158.351 38.58C156.661 38.3763 155.033 38.1725 153.538 37.7828C151.849 37.3399 150.354 36.6667 148.992 36.0201C147.346 35.2406 145.966 34.3814 144.94 33.3716C143.631 32.0783 142.888 30.6433 142.888 29.1021" stroke="#0A0E0F" stroke-linecap="round" stroke-linejoin="round"/>
<path d="M173.849 30.6167C173.849 32.1048 172.549 33.2297 170.541 33.9738C169.143 34.4876 167.427 34.833 165.605 34.9925C163.95 35.1431 162.208 35.1608 160.554 35.0102C158.731 34.8507 157.015 34.4787 155.617 33.9561C153.6 33.212 152.22 32.0959 152.22 30.6078C152.22 28.6325 152.822 26.7989 153.742 25.2134C154.662 23.6278 156.051 22.2105 157.687 21.2627C159.324 20.315 161.111 19.748 163.075 19.748C165.039 19.748 166.879 20.3327 168.471 21.2539C170.063 22.1751 171.461 23.5658 172.407 25.2134C173.354 26.8609 173.84 28.6325 173.84 30.6078L173.849 30.6167Z" fill="#81AA68"/>
<path d="M173.849 30.6167C173.849 32.1048 172.558 33.2386 170.541 33.9827C169.143 34.4965 167.418 34.7799 165.605 34.9393C163.95 35.0899 162.217 35.1785 160.554 35.0368C158.731 34.8773 157.024 34.4787 155.626 33.9561C153.609 33.2121 152.309 32.1048 152.309 30.6167" stroke="#0A0E0F" stroke-linecap="round" stroke-linejoin="round"/>
<path d="M170.718 19.2874C170.718 21.1564 169.975 22.866 168.754 24.0972C167.533 25.3285 165.817 26.046 163.95 26.046C162.084 26.046 160.377 25.3196 159.156 24.0972C157.935 22.8749 157.201 21.1653 157.201 19.2963C157.201 17.4273 157.962 15.7531 159.191 14.5307C160.421 13.3083 162.084 12.5554 163.95 12.5554C165.817 12.5554 167.515 13.2818 168.745 14.5042C169.975 15.7265 170.718 17.4361 170.718 19.3051V19.2874Z" fill="#81AA68"/>
<path d="M174.601 10.8637C174.601 13.5033 172.478 15.6647 169.842 15.6647C167.206 15.6647 165.074 13.5033 165.074 10.8637C165.074 8.22404 167.206 6.09814 169.842 6.09814C172.478 6.09814 174.601 8.22404 174.601 10.8637Z" fill="#81AA68"/>
<path d="M170.727 4.88458C170.727 6.7536 169.196 8.25944 167.339 8.25944C165.481 8.25944 163.942 6.7536 163.942 4.88458C163.942 3.01557 165.472 1.48315 167.339 1.48315C169.205 1.48315 170.727 3.01557 170.727 4.88458Z" fill="#81AA68"/>
<path d="M157.201 19.2876C157.201 21.1566 157.962 22.8396 159.182 24.062C160.403 25.2844 162.093 26.055 163.959 26.055C164.738 24.8592 163.959 24.62 163.959 23.1939" stroke="#0A0E0F" stroke-linecap="round" stroke-linejoin="round"/>
<path d="M169.842 15.6292C172.478 15.6292 174.628 13.5033 174.628 10.8636C175.061 9.74753 175.459 10.0044 176.309 9.15405" stroke="#0A0E0F" stroke-linecap="round" stroke-linejoin="round"/>
<path d="M167.33 8.26823C165.463 8.26823 163.95 6.75354 163.95 4.88452C163.243 4.21132 162.968 4.87566 161.987 4.87566" stroke="#0A0E0F" stroke-linecap="round" stroke-linejoin="round"/>
<path d="M168.312 2.45753C168.713 2.05598 169.114 1.65737 169.515 1.26172" stroke="#0A0E0F" stroke-linecap="round" stroke-linejoin="round"/>
<path d="M168.913 11.8469C168.43 11.3627 167.949 10.8814 167.471 10.4031" stroke="#0A0E0F" stroke-linecap="round" stroke-linejoin="round"/>
<path d="M171.903 7.86084C171.903 6.71818 171.903 6.71818 171.903 5.56665" stroke="#0A0E0F" stroke-linecap="round" stroke-linejoin="round"/>
<path d="M160.138 15.8772C159.401 15.1391 158.663 14.4039 157.926 13.6716" stroke="#0A0E0F" stroke-linecap="round" stroke-linejoin="round"/>
<path d="M169.294 19.7925C170.603 19.7925 170.603 19.7925 171.912 19.7925" stroke="#0A0E0F" stroke-linecap="round" stroke-linejoin="round"/>
<path d="M172.399 28.3756C173.094 27.6788 173.793 26.982 174.495 26.2852" stroke="#0A0E0F" stroke-linecap="round" stroke-linejoin="round"/>
<path d="M154.414 25.1071C153.83 24.5224 153.25 23.9408 152.672 23.3621" stroke="#0A0E0F" stroke-linecap="round" stroke-linejoin="round"/>
</g>
<defs>
<clipPath id="clip0_11950_6867">
<rect width="322" height="160" fill="white" transform="translate(0.5 0.5)"/>
</clipPath>
</defs>
</svg>
